<svg width="125" height="40" viewBox="0 0 125 40" fill="none" xmlns="http://www.w3.org/2000/svg">
<path fill-rule="evenodd" clip-rule="evenodd" d="M18.8581 0.0375998C18.724 0.056757 18.2355 0.123535 17.7564 0.180797C17.287 0.238069 16.3961 0.409864 15.7927 0.562567C11.4435 1.62202 7.68829 3.87454 4.9006 7.09107C2.20871 10.1932 0.647246 13.7246 0.129964 17.8287C-0.454416 22.5915 0.95378 27.7648 3.9139 31.6876C7.31467 36.1926 12.1908 39.0177 17.948 39.8387C19.3371 40.0295 22.0578 40.0582 23.3606 39.8863C27.1445 39.39 30.5932 38.0347 33.4576 35.9254C34.2718 35.324 35.6225 34.1692 35.6225 34.0737C35.6225 34.0069 30.689 29.2632 29.9514 28.6238L29.6066 28.3183L28.754 28.996C26.4836 30.8094 24.0503 31.7161 21.1573 31.8307C18.839 31.9166 17.0093 31.5253 14.9784 30.5231C9.47964 27.8125 6.8644 21.7611 8.75156 16.1393C9.77657 13.1042 11.8554 10.6893 14.7389 9.20044C16.6548 8.21736 18.4461 7.78783 20.6783 7.79741C24.0694 7.79741 26.7996 8.85679 29.4053 11.1666L30.325 11.9875L33.1893 9.2195C34.7604 7.69239 36.0631 6.41339 36.0823 6.37521C36.1206 6.27026 34.4826 4.82904 33.4766 4.0941C30.7369 2.08014 27.7097 0.810719 24.2228 0.209395C23.3606 0.0661986 19.4521 -0.0674213 18.8581 0.0375998ZM22.7666 2.56694C24.9029 2.796 27.0966 3.41642 28.9647 4.31357C29.9705 4.80037 32.2792 6.25117 32.423 6.48975C32.4612 6.55659 32.0397 7.0338 31.3788 7.68281L30.2675 8.77095L29.6831 8.3414C26.8188 6.23208 22.9104 5.17263 19.3371 5.51622C18.6761 5.57349 18.1013 5.63076 18.0535 5.64027C17.948 5.65942 17.2105 3.04415 17.2679 2.88187C17.3062 2.78642 17.8331 2.69098 19.1934 2.52876C19.8448 2.44283 21.8948 2.47149 22.7666 2.56694ZM15.237 4.80994C15.4382 5.57349 15.5819 6.24166 15.5531 6.27984C15.5244 6.32753 15.3424 6.41346 15.1413 6.48023C14.9497 6.5375 14.3365 6.82382 13.7809 7.10065C9.66173 9.18137 6.91233 12.7033 6.03096 17.0366C5.91608 17.5615 5.82984 18.1342 5.82984 18.2965V18.5924H4.24921C3.14756 18.5924 2.66858 18.5638 2.66858 18.4874C2.66858 18.0578 3.01344 16.2254 3.25289 15.3758C4.51743 10.8994 7.61165 7.08156 11.9129 4.70492C12.4685 4.39951 14.6718 3.426 14.8346 3.41642C14.8634 3.41642 15.0453 4.04634 15.237 4.80994ZM5.85854 21.6276C6.03096 23.2216 6.7686 25.369 7.64036 26.858C9.26895 29.6164 12.0566 32.0026 14.8634 33.0524C15.1125 33.1479 15.3137 33.2337 15.3137 33.2529C15.3137 33.272 15.17 33.816 14.9879 34.465C14.806 35.1045 14.6144 35.8108 14.5569 36.0304L14.4515 36.4217L13.848 36.1831C12.3344 35.5818 10.7634 34.6751 9.32642 33.5965C8.5025 32.976 6.82608 31.2771 6.14592 30.3799C4.20128 27.8125 2.9272 24.5769 2.69729 21.6371L2.63981 20.8736L5.78191 20.9309L5.85854 21.6276ZM30.6795 32.6325C31.3405 33.272 31.8865 33.8255 31.8865 33.8638C31.8865 34.0069 30.0471 35.1237 28.888 35.6772C27.4511 36.374 26.1004 36.8225 24.4622 37.1757C23.303 37.4144 23.054 37.4334 20.9178 37.4429C19.0689 37.4429 18.4366 37.4048 17.6799 37.2711C16.9038 37.1184 16.7506 37.0611 16.7889 36.9372C16.8176 36.8416 17.0189 36.1354 17.2296 35.3432C17.4499 34.5604 17.632 33.9019 17.6415 33.8924C17.6607 33.8828 17.8619 33.921 18.0917 33.9878C18.36 34.0546 19.3563 34.0928 20.6783 34.0928C22.5464 34.0928 22.9582 34.0642 23.7725 33.8828C25.631 33.4724 27.6906 32.6421 28.8689 31.8308C29.1372 31.6493 29.3766 31.4966 29.4149 31.4871C29.4437 31.4776 30.0184 31.9931 30.6795 32.6325Z" fill="#007680"/>
<path fill-rule="evenodd" clip-rule="evenodd" d="M54.676 8.21C54.3504 8.85911 51.4381 14.5859 48.2097 20.9521C44.9718 27.3088 42.3278 32.5393 42.3278 32.5678C42.3278 32.5965 43.5636 32.6251 45.0868 32.6251H47.8362L48.9378 30.3058L50.049 27.9961L55.6531 27.9673L61.2668 27.9483L62.3971 30.2867L63.5372 32.6252H66.2578C68.3941 32.6252 68.9688 32.5965 68.9305 32.5011C68.9114 32.4438 65.9895 26.6979 62.4547 19.7399L56.0363 7.09335L55.27 7.03609L54.676 8.21ZM57.6936 20.074C58.7761 22.3265 59.667 24.2068 59.667 24.2451C59.667 24.2927 57.8565 24.3213 55.6339 24.3213C53.3731 24.3213 51.6202 24.2832 51.6393 24.2355C51.898 23.5483 55.6149 15.8648 55.6627 15.9126C55.7011 15.9411 56.6111 17.8119 57.6936 20.074Z" fill="white"/>
<path fill-rule="evenodd" clip-rule="evenodd" d="M112.825 7.56912C109.654 8.08451 107.278 9.22035 105.353 11.1388C103.811 12.6755 102.843 14.3839 102.287 16.5601C101.377 20.1489 101.904 24.1386 103.676 27.0401C105.218 29.579 107.671 31.3925 110.755 32.2801C113.227 32.996 116.312 33.101 118.965 32.5665C120.622 32.2324 123.017 31.2587 124.492 30.3138L125 29.9989L123.889 28.0899C123.285 27.0401 122.749 26.1428 122.711 26.1047C122.663 26.057 122.395 26.1715 122.117 26.3528C120.296 27.5077 118.246 28.1759 116.091 28.2904C112.221 28.5099 109.127 27.1259 107.642 24.5108C106.626 22.7259 106.339 19.8625 106.943 17.4954C107.019 17.1804 107.278 16.5314 107.508 16.0637C108.485 14.0881 110.325 12.7709 112.834 12.2268C113.974 11.9882 116.666 11.9882 117.816 12.2364C118.975 12.4845 120.699 13.0763 122.165 13.7158C122.855 14.0212 123.439 14.2598 123.458 14.2408C123.477 14.2216 123.593 13.2099 123.717 11.9882L123.947 9.76433L123.736 9.58297C123.055 9.02932 120.689 8.1417 118.821 7.75042C117.844 7.54044 117.365 7.50227 115.66 7.46409C114.242 7.44494 113.409 7.47368 112.825 7.56912Z" fill="white"/>
<path fill-rule="evenodd" clip-rule="evenodd" d="M72.9841 32.6248H78.2529V7.6178H72.9841V32.6248Z" fill="white"/>
<path fill-rule="evenodd" clip-rule="evenodd" d="M84.9577 32.6219H90.1308V20.9774H96.5487V17.0641H90.1308V11.6237H99.423V7.71043H84.9577V32.6219Z" fill="white"/>
<path fill-rule="evenodd" clip-rule="evenodd" d="M19.6909 12.2067C16.4625 12.5789 13.7515 14.9365 12.9659 18.0671C12.7456 18.9261 12.7456 20.5105 12.9563 21.3791C13.9622 25.5692 18.3305 28.1653 22.5935 27.1154C27.4503 25.9128 29.9123 20.835 27.7761 16.4541C26.6361 14.1251 24.3178 12.5408 21.5398 12.1972C20.6584 12.0922 20.6393 12.0922 19.6909 12.2067ZM22.0667 14.5355C24.0017 15.0415 25.6015 16.6068 26.0901 18.4679C26.2721 19.1456 26.2721 20.3864 26.0997 21.0355C25.6111 22.8872 24.0209 24.4524 22.1433 24.9392C21.4344 25.1206 19.9208 25.1206 19.2023 24.9392C17.3535 24.462 15.792 22.9444 15.2651 21.1309C15.016 20.2719 15.1022 18.6589 15.4471 17.8284C16.0985 16.244 17.5259 15.0033 19.2406 14.5451C19.94 14.3542 21.3578 14.3542 22.0667 14.5355Z" fill="white"/>
</svg>
