<svg width="122" height="40" viewBox="0 0 122 40" fill="none" xmlns="http://www.w3.org/2000/svg">
<path fill-rule="evenodd" clip-rule="evenodd" d="M18.4055 0.0375998C18.2746 0.056757 17.7978 0.123535 17.3303 0.180797C16.8721 0.238069 16.0026 0.409864 15.4137 0.562567C11.1689 1.62202 7.50377 3.87454 4.78299 7.09107C2.1557 10.1932 0.631712 13.7246 0.126845 17.8287C-0.44351 22.5915 0.930889 27.7648 3.81996 31.6876C7.13912 36.1926 11.8982 39.0177 17.5173 39.8387C18.873 40.0295 21.5284 40.0582 22.7999 39.8863C26.493 39.39 29.859 38.0347 32.6546 35.9254C33.4493 35.324 34.7676 34.1692 34.7676 34.0737C34.7676 34.0069 29.9524 29.2632 29.2325 28.6238L28.896 28.3183L28.0639 28.996C25.848 30.8094 23.4731 31.7161 20.6495 31.8307C18.3869 31.9166 16.6011 31.5253 14.619 30.5231C9.25212 27.8125 6.69965 21.7611 8.54152 16.1393C9.54193 13.1042 11.5708 10.6893 14.3852 9.20044C16.2551 8.21736 18.0034 7.78783 20.182 7.79741C23.4917 7.79741 26.1564 8.85679 28.6996 11.1666L29.5972 11.9875L32.3928 9.2195C33.9261 7.69239 35.1976 6.41339 35.2164 6.37521C35.2537 6.27026 33.655 4.82904 32.6732 4.0941C29.9992 2.08014 27.0447 0.810719 23.6414 0.209395C22.7999 0.0661986 18.9852 -0.0674213 18.4055 0.0375998ZM22.2202 2.56694C24.3052 2.796 26.4463 3.41642 28.2695 4.31357C29.2512 4.80037 31.5045 6.25117 31.6448 6.48975C31.6822 6.55659 31.2707 7.0338 30.6257 7.68281L29.5411 8.77095L28.9707 8.3414C26.1751 6.23208 22.3605 5.17263 18.873 5.51622C18.2279 5.57349 17.6669 5.63076 17.6202 5.64027C17.5173 5.65942 16.7974 3.04415 16.8535 2.88187C16.8909 2.78642 17.4051 2.69098 18.7328 2.52876C19.3686 2.44283 21.3694 2.47149 22.2202 2.56694ZM14.8713 4.80994C15.0677 5.57349 15.2079 6.24166 15.1798 6.27984C15.1518 6.32753 14.9742 6.41346 14.7779 6.48023C14.5909 6.5375 13.9924 6.82382 13.4502 7.10065C9.42984 9.18137 6.74643 12.7033 5.88622 17.0366C5.7741 17.5615 5.68992 18.1342 5.68992 18.2965V18.5924H4.14723C3.07202 18.5924 2.60454 18.5638 2.60454 18.4874C2.60454 18.0578 2.94112 16.2254 3.17482 15.3758C4.40902 10.8994 7.42897 7.08156 11.627 4.70492C12.1693 4.39951 14.3197 3.426 14.4786 3.41642C14.5067 3.41642 14.6842 4.04634 14.8713 4.80994ZM5.71794 21.6276C5.88622 23.2216 6.60616 25.369 7.45699 26.858C9.0465 29.6164 11.7673 32.0026 14.5067 33.0524C14.7498 33.1479 14.9461 33.2337 14.9461 33.2529C14.9461 33.272 14.806 33.816 14.6282 34.465C14.4506 35.1045 14.2636 35.8108 14.2075 36.0304L14.1046 36.4217L13.5157 36.1831C12.0384 35.5818 10.5051 34.6751 9.10259 33.5965C8.29844 32.976 6.66226 31.2771 5.99841 30.3799C4.10045 27.8125 2.85694 24.5769 2.63255 21.6371L2.57646 20.8736L5.64314 20.9309L5.71794 21.6276ZM29.9431 32.6325C30.5883 33.272 31.1212 33.8255 31.1212 33.8638C31.1212 34.0069 29.326 35.1237 28.1947 35.6772C26.7923 36.374 25.474 36.8225 23.8751 37.1757C22.7438 37.4144 22.5007 37.4334 20.4158 37.4429C18.6112 37.4429 17.9942 37.4048 17.2556 37.2711C16.4981 37.1184 16.3486 37.0611 16.386 36.9372C16.414 36.8416 16.6104 36.1354 16.816 35.3432C17.0311 34.5604 17.2088 33.9019 17.2181 33.8924C17.2368 33.8828 17.4332 33.921 17.6575 33.9878C17.9194 34.0546 18.8918 34.0928 20.182 34.0928C22.0053 34.0928 22.4072 34.0642 23.2019 33.8828C25.0158 33.4724 27.026 32.6421 28.1761 31.8308C28.4379 31.6493 28.6716 31.4966 28.7089 31.4871C28.737 31.4776 29.298 31.9931 29.9431 32.6325Z" fill="#007680"/>
<path fill-rule="evenodd" clip-rule="evenodd" d="M53.3638 8.21C53.046 8.85911 50.2036 14.5859 47.0527 20.9521C43.8925 27.3088 41.312 32.5393 41.312 32.5678C41.312 32.5965 42.5181 32.6251 44.0047 32.6251H46.6881L47.7633 30.3058L48.8478 27.9961L54.3175 27.9673L59.7964 27.9483L60.8996 30.2867L62.0123 32.6252H64.6676C66.7526 32.6252 67.3136 32.5965 67.2762 32.5011C67.2575 32.4438 64.4058 26.6979 60.9558 19.7399L54.6914 7.09335L53.9435 7.03609L53.3638 8.21ZM56.309 20.074C57.3655 22.3265 58.235 24.2068 58.235 24.2451C58.235 24.2927 56.4679 24.3213 54.2987 24.3213C52.0922 24.3213 50.3813 24.2832 50.3999 24.2355C50.6524 23.5483 54.2801 15.8648 54.3268 15.9126C54.3643 15.9411 55.2524 17.8119 56.309 20.074Z" fill="black"/>
<path fill-rule="evenodd" clip-rule="evenodd" d="M110.117 7.56912C107.023 8.08451 104.704 9.22035 102.825 11.1388C101.319 12.6755 100.375 14.3839 99.832 16.5601C98.9438 20.1489 99.4583 24.1386 101.188 27.0401C102.693 29.579 105.087 31.3925 108.097 32.2801C110.51 32.996 113.52 33.101 116.11 32.5665C117.727 32.2324 120.065 31.2587 121.505 30.3138L122 29.9989L120.916 28.0899C120.326 27.0401 119.803 26.1428 119.766 26.1047C119.719 26.057 119.457 26.1715 119.186 26.3528C117.409 27.5077 115.409 28.1759 113.305 28.2904C109.528 28.5099 106.508 27.1259 105.059 24.5108C104.067 22.7259 103.787 19.8625 104.376 17.4954C104.451 17.1804 104.704 16.5314 104.928 16.0637C105.882 14.0881 107.677 12.7709 110.126 12.2268C111.239 11.9882 113.866 11.9882 114.989 12.2364C116.119 12.4845 117.802 13.0763 119.233 13.7158C119.906 14.0212 120.476 14.2598 120.495 14.2408C120.514 14.2216 120.626 13.2099 120.747 11.9882L120.972 9.76433L120.766 9.58297C120.102 9.02932 117.793 8.1417 115.969 7.75042C115.016 7.54044 114.549 7.50227 112.884 7.46409C111.501 7.44494 110.687 7.47368 110.117 7.56912Z" fill="black"/>
<path fill-rule="evenodd" clip-rule="evenodd" d="M71.2324 32.6248H76.3748V7.6178H71.2324V32.6248Z" fill="black"/>
<path fill-rule="evenodd" clip-rule="evenodd" d="M82.9187 32.6219H87.9676V20.9774H94.2315V17.0641H87.9676V11.6237H97.0368V7.71043H82.9187V32.6219Z" fill="black"/>
<path fill-rule="evenodd" clip-rule="evenodd" d="M19.2183 12.2067C16.0674 12.5789 13.4214 14.9365 12.6547 18.0671C12.4398 18.9261 12.4398 20.5105 12.6454 21.3791C13.6272 25.5692 17.8906 28.1653 22.0512 27.1154C26.7915 25.9128 29.1944 20.835 27.1095 16.4541C25.9968 14.1251 23.7341 12.5408 21.0228 12.1972C20.1626 12.0922 20.1439 12.0922 19.2183 12.2067ZM21.5371 14.5355C23.4257 15.0415 24.9871 16.6068 25.464 18.4679C25.6416 19.1456 25.6416 20.3864 25.4733 21.0355C24.9964 22.8872 23.4444 24.4524 21.6119 24.9392C20.92 25.1206 19.4427 25.1206 18.7415 24.9392C16.937 24.462 15.413 22.9444 14.8987 21.1309C14.6556 20.2719 14.7397 18.6589 15.0764 17.8284C15.7121 16.244 17.1053 15.0033 18.7788 14.5451C19.4614 14.3542 20.8452 14.3542 21.5371 14.5355Z" fill="black"/>
</svg>
