<svg width="323" height="72" viewBox="0 0 323 72" fill="none" xmlns="http://www.w3.org/2000/svg">
<path d="M51.9237 0H20.127C9.01118 0 0 9.00483 0 20.1129V51.8871C0 62.9952 9.01118 72 20.127 72H51.9237C63.0396 72 72.0508 62.9952 72.0508 51.8871V20.1129C72.0508 9.00483 63.0396 0 51.9237 0Z" fill="#542877"/>
<path d="M312.293 40.3022L322.563 51.4271H316.34L308.084 41.845V51.4271H303.472V21.5117H308.084V38.8937L316.177 29.1487H322.563L312.293 40.3022Z" fill="#542877"/>
<path d="M288.443 28.7845C290.197 28.7845 291.76 29.1486 293.132 29.8768C294.532 30.6051 295.625 31.6783 296.411 33.106C297.197 34.5338 297.581 36.2585 297.581 38.2804V51.4174H293.007V38.9703C293.007 36.9772 292.508 35.4536 291.511 34.3996C290.514 33.3264 289.152 32.7802 287.426 32.7802C285.7 32.7802 284.329 33.3168 283.303 34.3996C282.306 35.4536 281.807 36.9772 281.807 38.9703V51.4174H277.195V29.139H281.807V31.6879C282.565 30.768 283.524 30.0589 284.684 29.5415C285.873 29.0336 287.129 28.7749 288.443 28.7749V28.7845Z" fill="#542877"/>
<path d="M266.485 40.264C266.485 38.7309 266.159 37.3894 265.516 36.2587C264.893 35.128 264.078 34.2656 263.052 33.6715C262.026 33.0775 260.923 32.7804 259.734 32.7804C258.545 32.7804 257.442 33.0775 256.416 33.6715C255.39 34.2369 254.556 35.0897 253.904 36.2204C253.281 37.3223 252.974 38.6447 252.974 40.1778C252.974 41.7109 253.281 43.062 253.904 44.2215C254.556 45.3809 255.39 46.272 256.416 46.8853C257.471 47.4794 258.574 47.7764 259.734 47.7764C260.894 47.7764 262.026 47.4794 263.052 46.8853C264.078 46.2912 264.903 45.4288 265.516 44.2981C266.168 43.1387 266.485 41.7876 266.485 40.2545V40.264ZM248.237 40.1874C248.237 37.9547 248.697 35.9713 249.608 34.2465C250.548 32.5217 251.823 31.1898 253.415 30.2411C255.036 29.2734 256.81 28.7847 258.756 28.7847C260.511 28.7847 262.035 29.1392 263.33 29.8387C264.653 30.5094 265.708 31.3623 266.485 32.3875V29.1584H271.135V51.4368H266.485V48.1214C265.698 49.1754 264.634 50.0474 263.292 50.7469C261.949 51.4464 260.405 51.8009 258.679 51.8009C256.762 51.8009 255.016 51.3122 253.425 50.3444C251.833 49.3479 250.567 47.9681 249.618 46.2241C248.697 44.4418 248.247 42.4392 248.247 40.197L248.237 40.1874Z" fill="#542877"/>
<path d="M240.53 40.1873C240.53 38.6541 240.204 37.3318 239.561 36.2298C238.938 35.0992 238.104 34.2463 237.049 33.681C236.023 33.0869 234.92 32.7899 233.731 32.7899C232.542 32.7899 231.468 33.0869 230.413 33.681C229.387 34.2751 228.553 35.1375 227.901 36.2682C227.278 37.3989 226.971 38.7308 226.971 40.2735C226.971 41.8162 227.278 43.1577 227.901 44.3171C228.543 45.4478 229.387 46.3102 230.413 46.9043C231.468 47.4984 232.571 47.7955 233.731 47.7955C234.891 47.7955 236.023 47.4984 237.049 46.9043C238.104 46.2815 238.938 45.3903 239.561 44.2405C240.213 43.0811 240.53 41.73 240.53 40.1968V40.1873ZM226.98 32.4641C227.767 31.3909 228.831 30.5093 230.174 29.8386C231.545 29.1391 233.069 28.7845 234.747 28.7845C236.713 28.7845 238.497 29.2541 240.088 30.2027C241.68 31.1417 242.936 32.4928 243.847 34.2463C244.768 35.9711 245.219 37.9546 245.219 40.1873C245.219 42.4199 244.758 44.4321 243.847 46.2144C242.927 47.9679 241.661 49.3382 240.041 50.3347C238.449 51.3025 236.684 51.7912 234.738 51.7912C233.012 51.7912 231.478 51.4558 230.126 50.7851C228.802 50.1143 227.748 49.2519 226.971 48.1979V51.4271H222.359V21.5117H226.971V32.4641H226.98Z" fill="#542877"/>
<path d="M205.809 29.1488V51.4272H201.197V29.1488H205.809ZM203.546 26.1975C202.712 26.1975 202.012 25.91 201.446 25.3447C200.881 24.7794 200.593 24.0799 200.593 23.2462C200.593 22.4126 200.881 21.7131 201.446 21.1477C202.012 20.5824 202.712 20.2949 203.546 20.2949C204.381 20.2949 205.042 20.5824 205.608 21.1477C206.174 21.7131 206.461 22.4126 206.461 23.2462C206.461 24.0799 206.174 24.7794 205.608 25.3447C205.042 25.91 204.352 26.1975 203.546 26.1975Z" fill="#542877"/>
<path d="M197.102 32.9053H192.978V51.4179H188.328V32.9053H185.7V29.1491H188.328V27.568C188.328 25.0096 188.999 23.1507 190.351 21.9913C191.722 20.8031 193.87 20.209 196.785 20.209V24.0514C195.385 24.0514 194.398 24.3197 193.832 24.8563C193.266 25.3642 192.978 26.2745 192.978 27.568V29.1491H197.102V32.9053Z" fill="#542877"/>
<path d="M145.093 51.7913C143.338 51.7913 141.766 51.4847 140.356 50.8619C138.985 50.2199 137.892 49.3575 137.077 48.2747C136.271 47.1727 135.84 45.9462 135.782 44.5952H140.557C140.634 45.5342 141.085 46.3295 141.89 46.9811C142.725 47.6039 143.76 47.9106 145.007 47.9106C146.253 47.9106 147.298 47.671 147.998 47.1823C148.727 46.6745 149.092 46.0229 149.092 45.2372C149.092 44.4035 148.689 43.7807 147.874 43.3782C147.088 42.9758 145.841 42.5254 144.115 42.0463C142.446 41.5864 141.085 41.1456 140.03 40.7144C138.975 40.2832 138.064 39.622 137.278 38.7309C136.521 37.8398 136.147 36.6707 136.147 35.2143C136.147 34.0261 136.501 32.9529 137.201 31.9851C137.901 30.9886 138.899 30.2028 140.193 29.6375C141.516 29.0721 143.022 28.7847 144.719 28.7847C147.251 28.7847 149.293 29.4267 150.827 30.7298C152.39 31.9947 153.224 33.7386 153.339 35.9425H148.727C148.65 34.946 148.238 34.1507 147.509 33.5566C146.781 32.9625 145.793 32.6654 144.556 32.6654C143.319 32.6654 142.408 32.8954 141.766 33.3553C141.114 33.8153 140.797 34.4189 140.797 35.1759C140.797 35.77 141.018 36.2683 141.449 36.6707C141.881 37.0732 142.408 37.399 143.031 37.6385C143.655 37.8589 144.566 38.1368 145.783 38.4913C147.404 38.9225 148.727 39.3633 149.744 39.8233C150.798 40.2545 151.7 40.906 152.457 41.7684C153.215 42.6308 153.608 43.7807 153.627 45.2084C153.627 46.4732 153.272 47.6039 152.572 48.6005C151.872 49.597 150.875 50.3827 149.581 50.9481C148.315 51.5134 146.819 51.8009 145.093 51.8009V51.7913Z" fill="#542877"/>
<path d="M176.436 40.264C176.436 38.7309 176.11 37.3894 175.467 36.2587C174.844 35.128 174.029 34.2656 173.003 33.6715C171.977 33.0775 170.874 32.7804 169.685 32.7804C168.496 32.7804 167.393 33.0775 166.367 33.6715C165.341 34.2369 164.507 35.0897 163.855 36.2204C163.232 37.3223 162.925 38.6447 162.925 40.1778C162.925 41.7109 163.232 43.062 163.855 44.2215C164.507 45.3809 165.341 46.272 166.367 46.8853C167.422 47.4794 168.525 47.7764 169.685 47.7764C170.845 47.7764 171.977 47.4794 173.003 46.8853C174.029 46.2912 174.853 45.4288 175.467 44.2981C176.11 43.1387 176.436 41.7876 176.436 40.2545V40.264ZM158.188 40.1874C158.188 37.9547 158.648 35.9713 159.559 34.2465C160.499 32.5217 161.774 31.1898 163.366 30.2411C164.986 29.2734 166.76 28.7847 168.707 28.7847C170.462 28.7847 171.986 29.1392 173.281 29.8387C174.604 30.5094 175.649 31.3623 176.436 32.3875V29.1584H181.086V51.4368H176.436V48.1214C175.649 49.1754 174.585 50.0474 173.243 50.7469C171.89 51.4464 170.356 51.8009 168.63 51.8009C166.712 51.8009 164.967 51.3122 163.376 50.3444C161.784 49.3479 160.518 47.9681 159.569 46.2241C158.648 44.4418 158.198 42.4392 158.198 40.197L158.188 40.1874Z" fill="#542877"/>
<path d="M120.438 21.5117H115.825V51.4271H120.438V21.5117Z" fill="#542877"/>
<path d="M105.115 40.264C105.115 38.7309 104.789 37.3894 104.147 36.2587C103.524 35.128 102.708 34.2656 101.682 33.6715C100.656 33.0775 99.5538 32.7804 98.3647 32.7804C97.1757 32.7804 96.073 33.0775 95.047 33.6715C94.021 34.2369 93.1867 35.0897 92.5347 36.2204C91.9114 37.3223 91.6046 38.6447 91.6046 40.1778C91.6046 41.7109 91.9114 43.062 92.5347 44.2215C93.1867 45.3809 94.021 46.272 95.047 46.8853C96.1018 47.4794 97.2045 47.7764 98.3647 47.7764C99.525 47.7764 100.656 47.4794 101.682 46.8853C102.708 46.2912 103.533 45.4288 104.147 44.2981C104.789 43.1387 105.115 41.7876 105.115 40.2545V40.264ZM86.8677 40.1874C86.8677 37.9547 87.3279 35.9713 88.2389 34.2465C89.1786 32.5217 90.4539 31.1898 92.0457 30.2411C93.6662 29.2734 95.4401 28.7847 97.3867 28.7847C99.1414 28.7847 100.666 29.1392 101.961 29.8387C103.284 30.5094 104.329 31.3623 105.115 32.3875V29.1584H109.766V51.4368H105.115V48.1214C104.329 49.1754 103.265 50.0474 101.922 50.7469C100.57 51.4464 99.036 51.8009 97.31 51.8009C95.3922 51.8009 93.647 51.3122 92.0553 50.3444C90.4635 49.3479 89.1978 47.9681 88.2485 46.2241C87.3279 44.4418 86.8773 42.4392 86.8773 40.197L86.8677 40.1874Z" fill="#542877"/>
<path d="M54.013 42.7271C55.202 42.9858 56.391 42.9283 57.5321 42.5163C57.8198 42.4108 58.0979 42.2863 58.3664 42.1426C58.6253 41.9892 58.8746 41.8168 59.1239 41.6251C59.6129 41.2418 60.0636 40.7627 60.4663 40.2261C60.9074 39.5362 61.454 38.9134 62.0677 38.3768C62.2211 38.2426 62.3841 38.1085 62.5375 37.9839C62.6909 37.8593 62.8444 37.7348 63.0074 37.6198C63.3238 37.3898 63.6594 37.1886 64.0046 37.0065C64.3019 36.8532 64.5991 36.6903 64.8964 36.5274C65.0882 36.422 65.2128 36.2208 65.2128 36.0004C65.2128 35.78 65.0977 35.5692 64.906 35.4542C64.6183 35.2913 64.3115 35.138 64.0238 34.9847C63.3238 34.6302 62.6526 34.1607 62.0677 33.6145C61.7608 33.3366 61.5115 33.0491 61.2238 32.7425C60.9458 32.4359 60.6773 32.1101 60.4471 31.7651C59.7184 30.644 58.6061 29.8679 57.5034 29.4462C57.2253 29.3408 56.9376 29.2642 56.65 29.2067C56.3527 29.1492 56.0458 29.1205 55.7486 29.1013C55.1445 29.0725 54.5308 29.1396 53.9267 29.2738C53.5815 29.3504 52.3733 29.7816 52.3733 29.7816L47.6844 31.5639C47.3775 31.6789 47.2241 32.0238 47.3296 32.34C48.1063 34.6972 48.1159 37.2748 47.3487 39.6512C47.2433 39.9674 47.3967 40.3028 47.7035 40.4178L52.4692 42.2288C52.4692 42.2288 53.6486 42.6408 54.0226 42.7175L54.013 42.7271Z" fill="#F8D79D"/>
<path d="M43.9836 53.4681C44.6453 54.4934 45.5274 55.2887 46.6206 55.7965C47.7329 56.3427 48.9794 56.4385 50.3219 56.2373C51.1465 56.0936 51.952 56.0073 52.767 56.0648C53.1794 56.084 53.5821 56.1319 53.9752 56.2086C54.3588 56.2756 54.7424 56.3619 55.1163 56.4769C55.4328 56.5823 55.7492 56.6781 56.0752 56.7643C56.2862 56.8218 56.5163 56.7643 56.6697 56.611C56.8327 56.4481 56.8903 56.2182 56.8327 56.0074C56.7464 55.6911 56.6505 55.3749 56.5547 55.0587C56.3053 54.3017 56.1615 53.5064 56.1231 52.7015C56.104 52.2991 56.1232 51.8966 56.1519 51.4942C56.1903 51.0821 56.219 50.6605 56.2862 50.2485C56.3916 49.5778 56.4492 48.9453 56.3533 48.3033C56.2574 47.6613 56.0848 47.0672 55.8355 46.5306C55.3465 45.4479 54.4739 44.5376 53.4287 43.886C53.1218 43.6943 51.9712 43.1386 51.9712 43.1386L47.3973 41.088C47.1096 40.9539 46.7548 41.0688 46.611 41.3563C45.4699 43.5985 43.648 45.4191 41.4042 46.5786C41.1262 46.7223 41.0111 47.0672 41.1357 47.3643L43.2261 52.0116C43.2261 52.0116 43.7727 53.1423 43.9836 53.4585V53.4681Z" fill="#F8D79D"/>
<path d="M29.2926 53.9759C29.0337 55.1641 29.0912 56.3522 29.5035 57.4925C29.609 57.78 29.7337 58.0578 29.8775 58.3261C30.0309 58.5849 30.2035 58.834 30.3953 59.0831C30.7788 59.5718 31.2583 60.0222 31.7953 60.4246C32.4857 60.8654 33.1089 61.4116 33.6459 62.0248C33.7802 62.1782 33.9144 62.3411 34.0391 62.4944C34.1637 62.6477 34.2884 62.801 34.4034 62.9639C34.6336 63.2801 34.8349 63.6155 35.0171 63.9604C35.1705 64.2575 35.3336 64.5545 35.4966 64.8516C35.602 65.0432 35.8034 65.1678 36.024 65.1678C36.2445 65.1678 36.4555 65.0528 36.5705 64.8612C36.7335 64.5737 36.887 64.2766 37.0404 63.9796C37.3952 63.2801 37.865 62.6094 38.4116 62.0248C38.6897 61.7182 38.9773 61.4691 39.2842 61.1816C39.591 60.9037 39.917 60.6354 40.2622 60.4055C41.3841 59.6772 42.1608 58.5657 42.5827 57.4638C42.6882 57.1859 42.7649 56.8984 42.8225 56.611C42.88 56.3139 42.9088 56.0073 42.9279 55.7007C42.9567 55.097 42.8896 54.4837 42.7553 53.88C42.6786 53.5351 42.2471 52.3277 42.2471 52.3277L40.4636 47.6421C40.3485 47.3355 40.0033 47.1821 39.6869 47.2876C37.328 48.0637 34.7486 48.0733 32.3706 47.3067C32.0542 47.2109 31.7186 47.3546 31.6035 47.6613L29.7912 52.4236C29.7912 52.4236 29.3789 53.6022 29.3022 53.9759H29.2926Z" fill="#F8D79D"/>
<path d="M18.5541 43.953C17.5281 44.6142 16.7322 45.4958 16.224 46.5881C15.6774 47.6996 15.5815 48.9453 15.7829 50.2868C15.9267 51.1109 16.013 51.9158 15.9555 52.7303C15.9363 53.1423 15.8884 53.5447 15.8117 53.9376C15.7446 54.3209 15.6583 54.7042 15.5432 55.0779C15.4377 55.3941 15.3418 55.7103 15.2555 56.0361C15.198 56.2469 15.2555 56.4769 15.4089 56.6302C15.5624 56.7931 15.7925 56.8506 16.013 56.7931C16.3295 56.7068 16.6459 56.611 16.9623 56.5152C17.7199 56.2661 18.5157 56.1223 19.3212 56.084C19.7239 56.0648 20.1267 56.084 20.5294 56.1127C20.9417 56.1511 21.3636 56.1798 21.776 56.2565C22.4472 56.3619 23.08 56.4194 23.7225 56.3235C24.3554 56.2277 24.9595 56.0552 25.4964 55.7965C26.58 55.3174 27.4909 54.4359 28.143 53.3914C28.3347 53.0848 28.8909 51.9349 28.8909 51.9349L30.9429 47.3643C31.0772 47.0768 30.9621 46.7223 30.6744 46.5785C28.4306 45.4383 26.6088 43.6177 25.4485 41.3754C25.3047 41.0976 24.9595 40.9826 24.6622 41.1071L20.0116 43.1961C20.0116 43.1961 18.8801 43.7422 18.5637 43.953H18.5541Z" fill="#F8D79D"/>
<path d="M18.0465 29.2734C16.8575 29.0147 15.6684 29.0722 14.5274 29.4842C14.2397 29.5896 13.9616 29.7142 13.6931 29.8579C13.4342 30.0112 13.1849 30.1837 12.9356 30.3754C12.4466 30.7586 11.9959 31.2377 11.5932 31.7743C11.1521 32.4643 10.6055 33.0871 9.99183 33.6237C9.83841 33.7578 9.6754 33.892 9.52197 34.0166C9.36855 34.1411 9.21513 34.2657 9.05212 34.3807C8.73569 34.6107 8.40008 34.8119 8.05488 34.9939C7.75762 35.1473 7.46037 35.3101 7.16311 35.473C6.97133 35.5784 6.84668 35.7797 6.84668 36.0001C6.84668 36.2204 6.96175 36.4313 7.15352 36.5462C7.44119 36.7091 7.74803 36.8625 8.0357 37.0158C8.73569 37.3703 9.40691 37.8398 9.99183 38.386C10.2987 38.6639 10.548 38.9514 10.8356 39.258C11.1137 39.5646 11.3822 39.8904 11.6123 40.2354C12.3411 41.3565 13.4534 42.1326 14.5561 42.5542C14.8342 42.6596 15.1219 42.7363 15.4095 42.7938C15.7068 42.8513 16.0136 42.88 16.3109 42.8992C16.915 42.9279 17.5287 42.8609 18.1328 42.7267C18.478 42.65 19.6862 42.2189 19.6862 42.2189L24.3751 40.4366C24.682 40.3216 24.8354 39.9766 24.7299 39.6604C23.9532 37.3032 23.9436 34.7256 24.7107 32.3493C24.8162 32.0331 24.6628 31.6977 24.356 31.5827L19.5903 29.7717C19.5903 29.7717 18.4109 29.3597 18.0369 29.283L18.0465 29.2734Z" fill="#F8D79D"/>
<path d="M28.0656 18.5413C27.404 17.516 26.5218 16.7207 25.4287 16.2128C24.3164 15.6666 23.0698 15.5708 21.7274 15.772C20.9028 15.9158 20.0973 16.002 19.2822 15.9445C18.8699 15.9253 18.4672 15.8679 18.074 15.8008C17.6905 15.7433 17.3069 15.6475 16.933 15.5325C16.6165 15.4367 16.3001 15.3313 15.9741 15.245C15.7631 15.1875 15.533 15.245 15.3796 15.3983C15.2166 15.5516 15.159 15.7816 15.2166 16.002C15.3029 16.3182 15.3987 16.6344 15.4946 16.941C15.7439 17.698 15.8878 18.4933 15.9261 19.2982C15.9453 19.7007 15.9261 20.1031 15.8974 20.5056C15.859 20.9176 15.8302 21.3392 15.7535 21.7513C15.6481 22.422 15.5905 23.0544 15.6864 23.6964C15.7823 24.3384 15.9549 24.9325 16.2042 25.4691C16.6932 26.5519 17.5658 27.4622 18.611 28.1138C18.9179 28.3054 20.0685 28.8612 20.0685 28.8612L24.6424 30.9022C24.9397 31.0363 25.2849 30.9214 25.4383 30.6243C26.5794 28.3821 28.4012 26.5615 30.6355 25.4021C30.9231 25.2583 31.0382 24.9038 30.9039 24.6067L28.8136 19.9594C28.8136 19.9594 28.267 18.8287 28.056 18.5125L28.0656 18.5413Z" fill="#F8D79D"/>
<path d="M42.7679 18.0337C43.0268 16.8455 42.9693 15.6573 42.557 14.5171C42.4515 14.2296 42.3268 13.9517 42.183 13.6834C42.0296 13.4247 41.857 13.1756 41.6652 12.9264C41.2817 12.4473 40.8022 11.9874 40.2652 11.5849C39.5748 11.1442 38.9516 10.598 38.4146 9.98473C38.2803 9.83142 38.1461 9.66852 38.0214 9.51521C37.8968 9.36189 37.7721 9.20858 37.6571 9.04568C37.4269 8.72947 37.2256 8.3941 37.0434 8.04914C36.8899 7.7521 36.7269 7.45505 36.5639 7.15801C36.4584 6.96636 36.2571 6.8418 36.0365 6.8418C35.816 6.8418 35.605 6.95678 35.49 7.14842C35.327 7.43589 35.1735 7.74252 35.0201 8.02998C34.6653 8.72947 34.1955 9.40022 33.6489 9.98473C33.3708 10.2914 33.0832 10.5405 32.7763 10.828C32.4695 11.1058 32.1435 11.3741 31.7983 11.6041C30.6764 12.3323 29.8997 13.4439 29.4777 14.5458C29.3723 14.8237 29.2956 15.1112 29.238 15.3986C29.1805 15.6957 29.1517 16.0023 29.1325 16.3089C29.1038 16.9126 29.1709 17.5259 29.3051 18.1295C29.3819 18.4745 29.8134 19.6818 29.8134 19.6818L31.5969 24.3675C31.712 24.6741 32.0572 24.8274 32.3736 24.722C34.7324 23.9459 37.3119 23.9363 39.6899 24.7029C40.0063 24.7987 40.3419 24.6549 40.457 24.3483L42.2693 19.586C42.2693 19.586 42.6816 18.4074 42.7583 18.0337H42.7679Z" fill="#F8D79D"/>
<path d="M53.504 28.0463C54.53 27.3851 55.3258 26.5036 55.8341 25.4112C56.3806 24.2997 56.4765 23.054 56.2751 21.7125C56.1313 20.8885 56.045 20.0836 56.1025 19.2691C56.1217 18.8571 56.1793 18.4546 56.2464 18.0618C56.3135 17.6785 56.3998 17.2952 56.5149 16.9215C56.6203 16.6053 56.7162 16.2891 56.8025 15.9633C56.8601 15.7525 56.8025 15.5225 56.6491 15.3692C56.4957 15.2063 56.2656 15.1488 56.045 15.2063C55.7286 15.2925 55.4121 15.3883 55.0957 15.4842C54.3382 15.7333 53.5423 15.877 52.7368 15.9154C52.3341 15.9345 51.9314 15.9154 51.5287 15.8866C51.1163 15.8579 50.6944 15.8195 50.2821 15.7429C49.6109 15.6375 48.978 15.58 48.3356 15.6758C47.7027 15.7716 47.0986 15.9441 46.5616 16.2028C45.4781 16.6819 44.5671 17.5635 43.9151 18.6079C43.7233 18.9146 43.1672 20.0644 43.1672 20.0644L41.1151 24.6351C40.9809 24.9225 41.096 25.2771 41.3836 25.4208C43.6274 26.5611 45.4493 28.3817 46.6096 30.6239C46.7534 30.9018 47.0986 31.0168 47.3958 30.8922L52.0464 28.8033C52.0464 28.8033 53.1779 28.2571 53.4944 28.0463H53.504Z" fill="#F8D79D"/>
</svg>
