<svg width="278" height="93" viewBox="0 0 278 93" fill="none" xmlns="http://www.w3.org/2000/svg">
<path d="M171.069 25.995C171.069 12.4642 182.038 1.49536 195.569 1.49536H252.934C266.465 1.49536 277.433 12.4642 277.433 25.995C277.433 39.5257 266.465 50.4945 252.934 50.4945H195.569C182.038 50.4945 171.069 39.5257 171.069 25.995Z" fill="#9047FF"/>
<path d="M13.2465 20.4547H0.688477V13.4837H33.2313V20.4547H20.6733V43.32H13.2465V20.4547Z" fill="white"/>
<path d="M33.2313 0.657227H0.688477V7.62844H33.2313V0.657227Z" fill="white"/>
<path d="M59.698 14.5992H66.3143V43.1807H59.698V38.9978C58.7367 40.5789 57.4021 41.8817 55.8196 42.7839C54.237 43.6864 52.4585 44.1587 50.6507 44.1566C48.6331 44.3614 46.597 44.0944 44.6931 43.3758C42.7894 42.6572 41.0666 41.505 39.6529 40.0052C38.2391 38.5052 37.1702 36.6959 36.5261 34.7115C35.8821 32.7268 35.679 30.6181 35.9319 28.5414C35.809 26.5437 36.1042 24.542 36.7977 22.6726C37.4908 20.8032 38.5657 19.1097 39.9495 17.7077C41.3331 16.3055 42.9929 15.2274 44.8162 14.5466C46.6394 13.8659 48.5833 13.5986 50.5157 13.7627C52.2554 13.698 53.9831 14.0852 55.54 14.8892C57.0974 15.693 58.4339 16.8878 59.4277 18.3637L59.698 14.5992ZM42.9536 28.5414C42.8774 29.6916 43.0359 30.8453 43.419 31.9282C43.8022 33.0109 44.4017 33.9984 45.1785 34.8265C45.9551 35.6548 46.8917 36.3052 47.9273 36.7354C48.9631 37.1657 50.0751 37.3667 51.1907 37.3251C53.447 37.3251 55.6106 36.3994 57.2061 34.7524C58.8016 33.1049 59.698 30.871 59.698 28.5414C59.698 26.2118 58.8016 23.9777 57.2061 22.3305C55.6106 20.6833 53.447 19.7578 51.1907 19.7578C50.0751 19.7161 48.9631 19.9169 47.9273 20.3474C46.8917 20.7777 45.9551 21.428 45.1785 22.2564C44.4017 23.0845 43.8022 24.0719 43.419 25.1546C43.0359 26.2376 42.8774 27.3913 42.9536 28.5414Z" fill="white"/>
<path d="M79.5471 2.45877V18.3529C80.6229 16.933 81.995 15.7821 83.5616 14.9856C85.128 14.1889 86.8481 13.7674 88.5944 13.7519C90.5048 13.6296 92.4186 13.928 94.2088 14.6275C95.9992 15.3269 97.6249 16.4113 98.9788 17.8089C100.332 19.2063 101.382 20.8849 102.06 22.7334C102.737 24.582 103.026 26.558 102.908 28.5306C103.111 30.5603 102.88 32.6113 102.232 34.5389C101.583 36.466 100.533 38.2232 99.1553 39.6857C97.7775 41.1485 96.1052 42.281 94.2572 43.0034C92.4089 43.726 90.4296 44.0206 88.4591 43.8671C86.7118 43.9867 84.9649 43.6236 83.3987 42.8149C81.8323 42.0061 80.5025 40.7812 79.5471 39.2659V43.1698H72.5252V2.45877H79.5471ZM79.9521 28.5306C79.9152 29.646 80.0986 30.7572 80.4908 31.7972C80.8834 32.837 81.4768 33.7836 82.2344 34.579C82.9923 35.3747 83.8992 36.0027 84.8998 36.425C85.9 36.8471 86.9733 37.055 88.054 37.0353C89.1174 37.037 90.1702 36.8146 91.1476 36.3823C92.1254 35.9501 93.0074 35.3169 93.7404 34.5211C94.473 33.7254 95.0413 32.7836 95.4102 31.7538C95.7792 30.7239 95.941 29.6273 95.8859 28.5306C95.9626 27.4355 95.8148 26.336 95.4521 25.3038C95.0892 24.2717 94.5199 23.3301 93.7806 22.5407C93.0417 21.7514 92.1495 21.1318 91.1627 20.7225C90.1759 20.3131 89.1168 20.1232 88.054 20.1653C86.9851 20.1464 85.9233 20.35 84.9318 20.7637C83.941 21.1775 83.0403 21.7928 82.2842 22.5734C81.5283 23.354 80.9324 24.2839 80.5314 25.3071C80.1309 26.3306 79.9339 27.4269 79.9521 28.5306Z" fill="white"/>
<path d="M134.506 14.5882L117.492 55.2992H109.931L115.197 42.4726L103.989 14.5882H112.091L116.277 26.9966L118.978 35.0832L122.218 26.9966L126.944 14.5882H134.506Z" fill="white"/>
<path d="M155.571 22.1168C153.866 20.422 151.592 19.4731 149.225 19.4677C145.984 19.4677 144.229 20.583 144.229 22.3957C144.229 24.2081 145.849 25.3235 149.36 25.4629C152.871 25.6022 161.378 27.1359 161.378 34.8042C161.378 39.8233 157.327 44.2846 149.36 44.2846C146.878 44.5261 144.376 44.1877 142.039 43.2947C139.701 42.4019 137.588 40.977 135.856 39.1263L139.232 33.9675C141.896 36.4794 145.348 37.9152 148.955 38.0107C151.52 38.0107 153.951 36.6168 153.951 34.5253C153.951 32.4339 152.331 31.7369 148.414 31.5972C144.499 31.458 136.802 29.0878 136.802 22.6744C136.802 16.2609 143.553 13.612 148.685 13.612C150.637 13.474 152.596 13.7354 154.45 14.3815C156.303 15.0275 158.015 16.0453 159.488 17.3763L155.571 22.1168Z" fill="white"/>
<path d="M249.378 38.8688C246.909 38.8688 244.685 38.3338 242.704 37.2638C240.724 36.1934 239.17 34.7106 238.043 32.8148C236.946 30.8886 236.397 28.7177 236.397 26.3021C236.397 23.8866 236.946 21.731 238.043 19.8354C239.17 17.9397 240.724 16.4567 242.704 15.3866C244.685 14.3164 246.909 13.7812 249.378 13.7812C251.876 13.7812 254.115 14.3164 256.096 15.3866C258.076 16.4567 259.615 17.9397 260.712 19.8354C261.839 21.731 262.403 23.8866 262.403 26.3021C262.403 28.7177 261.839 30.8886 260.712 32.8148C259.615 34.7106 258.076 36.1934 256.096 37.2638C254.115 38.3338 251.876 38.8688 249.378 38.8688ZM249.378 33.9614C251.48 33.9614 253.217 33.2581 254.588 31.8516C255.959 30.4451 256.644 28.5953 256.644 26.3021C256.644 24.0089 255.959 22.1591 254.588 20.7526C253.217 19.3462 251.48 18.6428 249.378 18.6428C247.275 18.6428 245.538 19.3462 244.167 20.7526C242.827 22.1591 242.156 24.0089 242.156 26.3021C242.156 28.5953 242.827 30.4451 244.167 31.8516C245.538 33.2581 247.275 33.9614 249.378 33.9614Z" fill="white"/>
<path d="M226.52 17.6362C228.16 15.0663 231.044 13.7812 235.174 13.7812V19.2425C234.688 19.1507 234.248 19.1048 233.853 19.1048C231.636 19.1048 229.906 19.7625 228.661 21.0781C227.416 22.3631 226.793 24.2295 226.793 26.677V38.5629H221.1V14.0566H226.52V17.6362Z" fill="white"/>
<path fill-rule="evenodd" clip-rule="evenodd" d="M195.568 50.4948L196.545 50.4948V35.4345C198.471 37.6227 201.085 38.7168 204.387 38.7168C206.772 38.7168 208.897 38.2003 210.763 37.1671C212.658 36.1336 214.141 34.675 215.211 32.7907C216.282 30.876 216.817 28.6879 216.817 26.2263C216.817 23.7646 216.282 21.5917 215.211 19.7075C214.141 17.8232 212.658 16.3645 210.763 15.3311C208.897 14.2979 206.772 13.7812 204.387 13.7812C202.706 13.7812 201.162 14.07 199.755 14.6474C198.379 15.2249 197.217 16.0909 196.27 17.2458V14.0547H190.812V50.0334C192.35 50.3361 193.941 50.4948 195.568 50.4948ZM208.928 31.7421C207.583 33.1401 205.855 33.8392 203.745 33.8392C202.369 33.8392 201.131 33.5352 200.031 32.9274C198.93 32.2894 198.058 31.3927 197.416 30.2379C196.774 29.083 196.453 27.7458 196.453 26.2263C196.453 24.7068 196.774 23.3696 197.416 22.2147C198.058 21.0598 198.93 20.1786 200.031 19.5706C201.131 18.9325 202.369 18.6133 203.745 18.6133C205.855 18.6133 207.583 19.3124 208.928 20.7104C210.304 22.1083 210.992 23.9469 210.992 26.2263C210.992 28.5056 210.304 30.344 208.928 31.7421Z" fill="white"/>
<path fill-rule="evenodd" clip-rule="evenodd" d="M242.704 37.2638C244.685 38.3338 246.909 38.8688 249.378 38.8688C251.876 38.8688 254.115 38.3338 256.096 37.2638C258.076 36.1934 259.615 34.7106 260.712 32.8148C261.839 30.8886 262.403 28.7177 262.403 26.3021C262.403 23.8866 261.839 21.731 260.712 19.8354C259.615 17.9397 258.076 16.4567 256.096 15.3866C254.115 14.3164 251.876 13.7812 249.378 13.7812C246.909 13.7812 244.685 14.3164 242.704 15.3866C240.724 16.4567 239.17 17.9397 238.043 19.8354C236.946 21.731 236.397 23.8866 236.397 26.3021C236.397 28.7177 236.946 30.8886 238.043 32.8148C239.17 34.7106 240.724 36.1934 242.704 37.2638ZM235.174 13.7812C231.044 13.7812 228.16 15.0663 226.52 17.6362V14.0566H221.1V38.5629H226.793V26.677C226.793 24.2295 227.416 22.3631 228.661 21.0781C229.906 19.7625 231.636 19.1048 233.853 19.1048C234.248 19.1048 234.688 19.1507 235.174 19.2425V13.7812ZM254.588 31.8516C253.217 33.2581 251.48 33.9614 249.378 33.9614C247.275 33.9614 245.538 33.2581 244.167 31.8516C242.827 30.4451 242.156 28.5953 242.156 26.3021C242.156 24.0089 242.827 22.1591 244.167 20.7526C245.538 19.3462 247.275 18.6428 249.378 18.6428C251.48 18.6428 253.217 19.3462 254.588 20.7526C255.959 22.1591 256.644 24.0089 256.644 26.3021C256.644 28.5953 255.959 30.4451 254.588 31.8516Z" fill="white"/>
<g opacity="0.5">
<path d="M194.651 75.7641C192.121 74.8613 189.536 74.2443 186.779 74.2957C178.208 74.4541 175.389 79.7437 165.435 78.6602C165.654 81.5703 166.622 83.9418 167.996 85.894C170.917 85.1887 175.058 82.8958 176.748 82.0208C185.254 77.6163 188.843 77.5309 191.301 77.4646C193.188 77.4136 194.17 77.5537 194.757 77.7552C194.758 77.6841 194.762 77.614 194.762 77.5425C194.762 76.94 194.722 76.3475 194.651 75.7641Z" fill="white"/>
<path d="M177.865 82.8311C175.741 83.9078 172.346 85.7954 168.836 87.0431C169.882 88.2052 171.246 89.4095 172.613 90.1904C174.419 89.246 175.51 88.6881 176.187 88.4186C179.318 87.1788 182.463 86.4566 185.913 87.2168C187.65 87.5865 188.454 88.139 189.639 88.6839C192.36 86.3465 194.214 83.0315 194.657 79.2823C194.687 79.0262 188.681 77.3478 177.865 82.8311Z" fill="white"/>
<path d="M180.075 92.2297C183.291 92.2297 186.263 91.1935 188.681 89.4409C187.475 88.5552 185.757 88.1174 184.075 88.0302C179.961 87.8128 176.935 89.1668 173.675 90.7647C175.61 91.7029 177.781 92.2297 180.075 92.2297Z" fill="white"/>
<path d="M191.64 68.4945C188.951 65.0632 184.772 62.8553 180.075 62.8553C174.134 62.8553 169.018 66.3844 166.705 71.46C166.537 71.829 170.197 70.5645 171.722 70.0012C173.747 69.2412 175.391 68.7799 177.616 68.2331C182.797 66.9363 186.592 67.6968 191.64 68.4945Z" fill="white"/>
<path d="M165.395 77.2919C170.64 78.6393 175.113 75.4379 179.293 74.104C185.196 72.2172 188.337 72.5525 194.17 73.4004C193.811 71.7859 193.428 71.2149 192.586 69.8489C192.366 69.8128 192.166 69.779 192.054 69.7618C188.431 69.0686 184.504 69.1473 180.788 69.6141C175.02 70.3324 171.088 72.7925 165.833 73.9458C165.563 75.019 165.414 76.1394 165.395 77.2919Z" fill="white"/>
<path d="M206.915 72.562H202.209V70.156H214.218V72.562H209.511V84.9289H206.915V72.562Z" fill="white"/>
<path d="M216.538 70.1561H227.492V72.4774H219.135V76.2974H226.542V78.6614H219.135V82.6077H227.597V84.929H216.538V70.1561Z" fill="white"/>
<path d="M230.298 70.1561H232.704L240.618 80.3704V70.1561H243.172V84.929H240.999L232.852 74.4192V84.929H230.298V70.1561Z" fill="white"/>
<path d="M246.739 70.1561H249.334V84.9291H246.739V70.1561Z" fill="white"/>
<path d="M252.352 83.0087L261.089 72.4562H252.647V70.1563H264.487V72.0768L255.75 82.6289H264.487V84.9292H252.352V83.0087Z" fill="white"/>
<path d="M248.856 65.6213L246.933 68.0281H249.203L251.02 65.6213H248.856Z" fill="white" fill-opacity="0.48"/>
<path d="M12.9473 84.9292V70.1503H18.7744C22.2368 70.1503 24.3903 72.1138 24.3903 75.0907V75.1329C24.3903 78.4265 21.7513 80.1788 18.4788 80.1788H15.5441V84.9292H12.9473ZM15.5441 77.8353H18.5632C20.5267 77.8353 21.7513 76.7375 21.7513 75.1963V75.154C21.7513 73.4017 20.5056 72.5149 18.5632 72.5149H15.5441V77.8353Z" fill="white"/>
<path d="M33.701 85.1825C29.1618 85.1825 25.9949 81.7412 25.9949 77.582V77.5398C25.9949 73.4017 29.204 69.897 33.7433 69.897C38.2825 69.897 41.4494 73.3383 41.4494 77.4975V77.5398C41.4494 81.6778 38.2403 85.1825 33.701 85.1825ZM33.7433 82.7757C36.6779 82.7757 38.7258 80.4533 38.7258 77.582V77.5398C38.7258 74.6684 36.6568 72.3038 33.701 72.3038C30.7664 72.3038 28.7184 74.6262 28.7184 77.4975V77.5398C28.7184 80.4111 30.7875 82.7757 33.7433 82.7757Z" fill="white"/>
<path d="M47.352 85.0348L42.2217 70.1503H45.0296L48.5555 81.1078L52.1868 70.1081H54.3826L58.0139 81.1078L61.5397 70.1503H64.2633L59.1329 85.0348H56.8738L53.2425 74.4151L49.6111 85.0348H47.352Z" fill="white"/>
<path d="M66.5275 84.9292V70.1503H77.4849V72.4727H69.1243V76.3152H76.5349V78.6587H69.1243V82.6068H77.5905V84.9292H66.5275Z" fill="white"/>
<path d="M80.2708 84.9292V70.1503H86.858C88.7159 70.1503 90.1727 70.6993 91.1227 71.6282C91.9039 72.4516 92.3473 73.5284 92.3473 74.8162V74.8584C92.3473 77.2864 90.8905 78.7432 88.8426 79.3343L92.8329 84.9292H89.7504L86.119 79.7777H82.8677V84.9292H80.2708ZM82.8677 77.4764H86.668C88.5259 77.4764 89.7082 76.5264 89.7082 75.0062V74.964C89.7082 73.3595 88.5892 72.5149 86.6469 72.5149H82.8677V77.4764Z" fill="white"/>
<path d="M95.1276 84.9292V70.1503H106.085V72.4727H97.7244V76.3152H105.135V78.6587H97.7244V82.6068H106.191V84.9292H95.1276Z" fill="white"/>
<path d="M108.871 84.9292V70.1503H114.381C119.026 70.1503 122.235 73.3383 122.235 77.4975V77.5398C122.235 81.699 119.026 84.9292 114.381 84.9292H108.871ZM114.381 72.5149H111.468V82.5646H114.381C117.485 82.5646 119.512 80.4744 119.512 77.582V77.5398C119.512 74.6473 117.485 72.5149 114.381 72.5149Z" fill="white"/>
<path d="M130.915 84.9292V70.1503H137.544C139.254 70.1503 140.542 70.5937 141.408 71.4593C142.062 72.1138 142.4 72.9372 142.4 73.9084V73.9506C142.4 75.7452 141.386 76.6741 140.289 77.2442C142.041 77.8565 143.223 78.8065 143.223 80.8333V80.8756C143.223 83.5146 141.049 84.9292 137.755 84.9292H130.915ZM139.803 74.3729V74.3306C139.803 73.1483 138.895 72.4516 137.206 72.4516H133.469V76.3786H137.016C138.705 76.3786 139.803 75.7241 139.803 74.3729ZM140.626 80.6011V80.5589C140.626 79.2921 139.634 78.5743 137.586 78.5743H133.469V82.6279H137.776C139.55 82.6279 140.626 81.9523 140.626 80.6011Z" fill="white"/>
<path d="M149.461 84.9292V79.1021L143.591 70.1503H146.674L150.791 76.6741L154.971 70.1503H157.948L152.079 79.0388V84.9292H149.461Z" fill="white"/>
</g>
</svg>
