<svg width="900" height="300" viewBox="0 0 900 300" fill="none" xmlns="http://www.w3.org/2000/svg">
<path d="M554.954 84.3291C554.954 40.435 590.537 4.85181 634.431 4.85181H820.524C864.418 4.85181 900.001 40.435 900.001 84.3291C900.001 128.223 864.418 163.806 820.524 163.806H634.431C590.537 163.806 554.954 128.223 554.954 84.3291Z" fill="#9047FF"/>
<path d="M42.9662 66.3548H2.22778V43.7407H107.797V66.3548H67.059V140.53H42.9662V66.3548Z" fill="#181C1E"/>
<path d="M107.797 2.13147H2.22778V24.7463H107.797V2.13147Z" fill="#181C1E"/>
<path d="M193.656 47.3596H215.119V140.079H193.656V126.509C190.538 131.638 186.208 135.865 181.074 138.791C175.941 141.719 170.171 143.251 164.307 143.245C157.761 143.909 151.156 143.043 144.98 140.712C138.804 138.38 133.215 134.643 128.629 129.777C124.043 124.911 120.575 119.042 118.486 112.604C116.397 106.166 115.738 99.3252 116.558 92.5885C116.16 86.1078 117.117 79.6142 119.367 73.5499C121.615 67.4856 125.103 61.9919 129.592 57.4436C134.08 52.8947 139.464 49.3973 145.379 47.1891C151.294 44.9808 157.6 44.1134 163.868 44.646C169.512 44.4361 175.117 45.692 180.168 48.3003C185.22 50.9079 189.555 54.7837 192.779 59.5717L193.656 47.3596ZM139.337 92.5885C139.09 96.3196 139.604 100.062 140.847 103.575C142.09 107.088 144.034 110.291 146.554 112.977C149.074 115.664 152.112 117.774 155.472 119.17C158.832 120.566 162.439 121.218 166.058 121.083C173.378 121.083 180.396 118.08 185.572 112.737C190.748 107.393 193.656 100.146 193.656 92.5885C193.656 85.0312 190.748 77.7836 185.572 72.44C180.396 67.0964 173.378 64.0941 166.058 64.0941C162.439 63.959 158.832 64.6104 155.472 66.0069C152.112 67.4027 149.074 69.5125 146.554 72.1996C144.034 74.886 142.09 78.0893 140.847 81.6017C139.604 85.1147 139.09 88.8574 139.337 92.5885Z" fill="#181C1E"/>
<path d="M258.047 7.97571V59.5365C261.537 54.9306 265.988 51.1968 271.07 48.6129C276.152 46.0284 281.732 44.6611 287.397 44.6108C293.594 44.2141 299.802 45.1821 305.61 47.4514C311.418 49.7201 316.692 53.2379 321.084 57.7719C325.474 62.3052 328.881 67.7506 331.078 73.747C333.276 79.7441 334.214 86.1541 333.829 92.5533C334.489 99.1379 333.74 105.791 331.637 112.044C329.534 118.296 326.127 123.996 321.656 128.741C317.187 133.486 311.762 137.16 305.767 139.503C299.771 141.848 293.35 142.803 286.958 142.305C281.29 142.693 275.623 141.515 270.542 138.892C265.46 136.268 261.147 132.295 258.047 127.379V140.043H235.268V7.97571H258.047ZM259.361 92.5533C259.241 96.1716 259.836 99.7764 261.109 103.15C262.382 106.523 264.307 109.594 266.765 112.175C269.223 114.756 272.165 116.793 275.411 118.163C278.656 119.532 282.138 120.207 285.644 120.143C289.093 120.148 292.509 119.427 295.679 118.024C298.852 116.622 301.712 114.568 304.091 111.987C306.467 109.405 308.311 106.35 309.507 103.01C310.704 99.6684 311.229 96.1112 311.051 92.5533C311.299 89.0008 310.82 85.4341 309.643 82.0854C308.466 78.7374 306.619 75.6829 304.221 73.1221C301.824 70.5614 298.93 68.5515 295.728 67.2236C292.527 65.8956 289.091 65.2796 285.644 65.4161C282.176 65.355 278.732 66.0152 275.515 67.3574C272.301 68.6996 269.379 70.6959 266.926 73.2281C264.474 75.7603 262.541 78.7769 261.24 82.0963C259.941 85.4165 259.302 88.973 259.361 92.5533Z" fill="#181C1E"/>
<path d="M436.336 47.3237L381.142 179.391H356.612L373.695 137.782L337.337 47.3237H363.62L377.199 87.5772L385.961 113.81L396.474 87.5772L411.805 47.3237H436.336Z" fill="#181C1E"/>
<path d="M504.672 71.7467C499.139 66.2489 491.762 63.1706 484.084 63.1529C473.57 63.1529 467.876 66.7713 467.876 72.6515C467.876 78.531 473.132 82.1494 484.521 82.6018C495.911 83.0535 523.508 88.0289 523.508 112.905C523.508 129.187 510.366 143.66 484.521 143.66C476.471 144.443 468.354 143.345 460.771 140.448C453.188 137.552 446.334 132.93 440.716 126.926L451.668 110.191C460.31 118.34 471.508 122.997 483.207 123.307C491.53 123.307 499.415 118.785 499.415 112C499.415 105.216 494.158 102.955 481.454 102.502C468.751 102.05 443.783 94.3609 443.783 73.5556C443.783 52.7503 465.685 44.1572 482.331 44.1572C488.663 43.7095 495.02 44.5572 501.033 46.6534C507.046 48.7489 512.6 52.0507 517.376 56.3686L504.672 71.7467Z" fill="#181C1E"/>
<path d="M808.989 126.091C800.982 126.091 793.766 124.356 787.341 120.885C780.917 117.412 775.875 112.602 772.218 106.452C768.66 100.203 766.881 93.1608 766.881 85.3248C766.881 77.4888 768.66 70.4959 772.218 64.3465C775.875 58.1967 780.917 53.3858 787.341 49.9144C793.766 46.4429 800.982 44.7067 808.989 44.7067C817.093 44.7067 824.358 46.4429 830.783 49.9144C837.208 53.3858 842.199 58.1967 845.758 64.3465C849.415 70.4959 851.243 77.4888 851.243 85.3248C851.243 93.1608 849.415 100.203 845.758 106.452C842.199 112.602 837.208 117.412 830.783 120.885C824.358 124.356 817.093 126.091 808.989 126.091ZM808.989 110.172C815.808 110.172 821.443 107.89 825.89 103.327C830.339 98.7648 832.562 92.764 832.562 85.3248C832.562 77.8855 830.339 71.8848 825.89 67.3221C821.443 62.7594 815.808 60.4778 808.989 60.4778C802.168 60.4778 796.533 62.7594 792.086 67.3221C787.738 71.8848 785.562 77.8855 785.562 85.3248C785.562 92.764 787.738 98.7648 792.086 103.327C796.533 107.89 802.168 110.172 808.989 110.172Z" fill="white"/>
<path d="M734.838 57.2123C740.157 48.8754 749.515 44.7067 762.911 44.7067V62.4231C761.335 62.1254 759.907 61.9765 758.626 61.9765C751.435 61.9765 745.821 64.1102 741.783 68.3779C737.743 72.5466 735.725 78.601 735.725 86.541V125.099H717.256V45.6H734.838V57.2123Z" fill="white"/>
<path fill-rule="evenodd" clip-rule="evenodd" d="M634.429 163.806L637.597 163.806V114.95C643.846 122.049 652.328 125.598 663.039 125.598C670.777 125.598 677.67 123.923 683.721 120.571C689.87 117.218 694.682 112.487 698.153 106.374C701.625 100.163 703.361 93.0643 703.361 85.0788C703.361 77.0928 701.625 70.0439 698.153 63.9317C694.682 57.8189 689.87 53.0869 683.721 49.7345C677.67 46.3827 670.777 44.7067 663.039 44.7067C657.585 44.7067 652.575 45.6434 648.012 47.5166C643.548 49.3898 639.78 52.1992 636.705 55.9457V45.5939H618.999V162.31C623.99 163.292 629.15 163.806 634.429 163.806ZM677.77 102.972C673.405 107.507 667.801 109.775 660.957 109.775C656.493 109.775 652.476 108.789 648.906 106.817C645.334 104.748 642.508 101.839 640.424 98.0926C638.341 94.3461 637.299 90.0082 637.299 85.0788C637.299 80.1494 638.341 75.8115 640.424 72.065C642.508 68.3186 645.334 65.4597 648.906 63.4876C652.476 61.4175 656.493 60.382 660.957 60.382C667.801 60.382 673.405 62.6499 677.77 67.1851C682.233 71.7199 684.464 77.6843 684.464 85.0788C684.464 92.4728 682.233 98.4368 677.77 102.972Z" fill="white"/>
<path fill-rule="evenodd" clip-rule="evenodd" d="M787.341 120.885C793.766 124.356 800.982 126.091 808.989 126.091C817.093 126.091 824.358 124.356 830.783 120.885C837.208 117.412 842.199 112.602 845.758 106.452C849.415 100.203 851.243 93.1608 851.243 85.3248C851.243 77.4888 849.415 70.4959 845.758 64.3465C842.199 58.1967 837.208 53.3858 830.783 49.9144C824.358 46.4429 817.093 44.7067 808.989 44.7067C800.982 44.7067 793.766 46.4429 787.341 49.9144C780.917 53.3858 775.875 58.1967 772.218 64.3465C768.66 70.4959 766.881 77.4888 766.881 85.3248C766.881 93.1608 768.66 100.203 772.218 106.452C775.875 112.602 780.917 117.412 787.341 120.885ZM762.911 44.7067C749.515 44.7067 740.157 48.8754 734.838 57.2123V45.6H717.256V125.099H735.725V86.541C735.725 78.601 737.743 72.5466 741.783 68.3779C745.821 64.1102 751.435 61.9765 758.626 61.9765C759.907 61.9765 761.335 62.1254 762.911 62.4231V44.7067ZM825.89 103.327C821.443 107.89 815.808 110.172 808.989 110.172C802.168 110.172 796.533 107.89 792.086 103.327C787.738 98.7648 785.562 92.764 785.562 85.3248C785.562 77.8855 787.738 71.8848 792.086 67.3221C796.533 62.7594 802.168 60.4778 808.989 60.4778C815.808 60.4778 821.443 62.7594 825.89 67.3221C830.339 71.8848 832.562 77.8855 832.562 85.3248C832.562 92.764 830.339 98.7648 825.89 103.327Z" fill="white"/>
<path d="M631.453 245.781C623.244 242.852 614.86 240.851 605.916 241.018C578.111 241.531 568.965 258.691 536.674 255.176C537.385 264.616 540.524 272.31 544.982 278.643C554.459 276.355 567.893 268.917 573.375 266.078C600.969 251.79 612.61 251.513 620.585 251.298C626.707 251.132 629.892 251.587 631.796 252.24C631.799 252.009 631.813 251.782 631.813 251.55C631.813 249.596 631.682 247.674 631.453 245.781Z" fill="#181C1E"/>
<path d="M576.997 268.707C570.107 272.199 559.093 278.323 547.707 282.37C551.101 286.14 555.527 290.047 559.96 292.58C565.82 289.517 569.357 287.707 571.555 286.833C581.71 282.811 591.915 280.468 603.107 282.934C608.741 284.133 611.348 285.926 615.194 287.693C624.019 280.111 630.034 269.357 631.47 257.194C631.568 256.363 612.087 250.919 576.997 268.707Z" fill="#181C1E"/>
<path d="M584.168 299.196C594.599 299.196 604.24 295.834 612.086 290.149C608.172 287.276 602.601 285.856 597.144 285.573C583.797 284.867 573.982 289.26 563.406 294.443C569.682 297.487 576.725 299.196 584.168 299.196Z" fill="#181C1E"/>
<path d="M621.684 222.198C612.962 211.067 599.406 203.905 584.168 203.905C564.893 203.905 548.297 215.353 540.795 231.819C540.25 233.015 552.122 228.913 557.07 227.086C563.638 224.621 568.972 223.124 576.189 221.35C592.998 217.144 605.307 219.61 621.684 222.198Z" fill="#181C1E" fill-opacity="0.8"/>
<path d="M536.543 250.737C553.56 255.108 568.071 244.723 581.63 240.396C600.781 234.275 610.97 235.362 629.892 238.113C628.728 232.875 627.485 231.023 624.754 226.592C624.039 226.475 623.389 226.365 623.028 226.309C611.275 224.061 598.535 224.316 586.479 225.83C567.769 228.16 555.011 236.141 537.967 239.883C537.091 243.364 536.606 246.998 536.543 250.737Z" fill="#181C1E" fill-opacity="0.8"/>
<path d="M671.237 235.393H655.97V227.588H694.927V235.393H679.659V275.512H671.237V235.393Z" fill="#181C1E"/>
<path d="M702.455 227.588H737.988V235.119H710.877V247.511H734.907V255.18H710.877V267.982H738.33V275.512H702.455V227.588Z" fill="#181C1E"/>
<path d="M747.093 227.588H754.898L780.57 260.724V227.588H788.854V275.512H781.804L755.377 241.418V275.512H747.093V227.588Z" fill="#181C1E"/>
<path d="M800.425 227.588H808.846V275.512H800.425V227.588Z" fill="#181C1E"/>
<path d="M818.634 269.283L846.978 235.05H819.592V227.589H858V233.819L829.657 268.05H858V275.513H818.634V269.283Z" fill="#181C1E"/>
<path d="M807.293 212.878L801.054 220.685H808.418L814.312 212.878H807.293Z" fill="#181C1E"/>
<path d="M42 275.513V227.57H60.9032C72.1356 227.57 79.1216 233.939 79.1216 243.596V243.733C79.1216 254.418 70.5603 260.102 59.9444 260.102H50.4243V275.513H42ZM50.4243 252.5H60.2183C66.5879 252.5 70.5603 248.939 70.5603 243.939V243.802C70.5603 238.117 66.5194 235.241 60.2183 235.241H50.4243V252.5Z" fill="#181C1E"/>
<path d="M109.326 276.335C94.6004 276.335 84.3269 265.171 84.3269 251.678V251.541C84.3269 238.117 94.7373 226.748 109.463 226.748C124.188 226.748 134.462 237.912 134.462 251.404V251.541C134.462 264.965 124.051 276.335 109.326 276.335ZM109.463 268.527C118.983 268.527 125.626 260.993 125.626 251.678V251.541C125.626 242.226 118.914 234.556 109.326 234.556C99.8056 234.556 93.1621 242.09 93.1621 251.404V251.541C93.1621 260.856 99.8741 268.527 109.463 268.527Z" fill="#181C1E"/>
<path d="M153.61 275.855L136.967 227.57H146.076L157.514 263.116L169.294 227.433H176.417L188.197 263.116L199.635 227.57H208.47L191.827 275.855H184.499L172.719 241.405L160.938 275.855H153.61Z" fill="#181C1E"/>
<path d="M215.815 275.513V227.57H251.362V235.104H224.24V247.569H248.28V255.171H224.24V267.979H251.704V275.513H215.815Z" fill="#181C1E"/>
<path d="M260.399 275.513V227.57H281.768C287.795 227.57 292.521 229.35 295.603 232.364C298.137 235.035 299.576 238.528 299.576 242.706V242.843C299.576 250.719 294.85 255.445 288.206 257.363L301.151 275.513H291.151L279.371 258.801H268.824V275.513H260.399ZM268.824 251.336H281.152C287.179 251.336 291.014 248.254 291.014 243.322V243.185C291.014 237.98 287.384 235.241 281.083 235.241H268.824V251.336Z" fill="#181C1E"/>
<path d="M308.595 275.513V227.57H344.141V235.104H317.019V247.569H341.059V255.171H317.019V267.979H344.484V275.513H308.595Z" fill="#181C1E"/>
<path d="M353.179 275.513V227.57H371.055C386.122 227.57 396.533 237.912 396.533 251.404V251.541C396.533 265.034 386.122 275.513 371.055 275.513H353.179ZM371.055 235.241H361.603V267.842H371.055C381.123 267.842 387.698 261.061 387.698 251.678V251.541C387.698 242.158 381.123 235.241 371.055 235.241Z" fill="#181C1E"/>
<path d="M424.689 275.513V227.57H446.195C451.742 227.57 455.92 229.008 458.728 231.816C460.851 233.939 461.947 236.61 461.947 239.761V239.898C461.947 245.719 458.66 248.733 455.098 250.582C460.783 252.568 464.618 255.651 464.618 262.226V262.363C464.618 270.924 457.564 275.513 446.88 275.513H424.689ZM453.523 241.268V241.131C453.523 237.295 450.578 235.035 445.099 235.035H432.976V247.774H444.482C449.962 247.774 453.523 245.651 453.523 241.268ZM456.194 261.472V261.335C456.194 257.226 452.975 254.897 446.332 254.897H432.976V268.047H446.948C452.701 268.047 456.194 265.856 456.194 261.472Z" fill="#181C1E"/>
<path d="M484.853 275.513V256.609L465.813 227.57H475.812L489.168 248.733L502.729 227.57H512.386L493.346 256.404V275.513H484.853Z" fill="#181C1E"/>
</svg>
