<svg width="120" height="120" viewBox="0 0 120 120" fill="none" xmlns="http://www.w3.org/2000/svg">
<path d="M112.5 97.5H108.75V33.75C108.75 32.7554 108.355 31.8016 107.652 31.0984C106.948 30.3951 105.995 30 105 30H86.25V18.75C86.25 17.7554 85.8549 16.8016 85.1517 16.0984C84.4484 15.3951 83.4946 15 82.5 15H37.5C36.5054 15 35.5516 15.3951 34.8484 16.0984C34.1451 16.8016 33.75 17.7554 33.75 18.75V45H15C14.0054 45 13.0516 45.3951 12.3483 46.0984C11.6451 46.8016 11.25 47.7554 11.25 48.75V97.5H7.5C6.50544 97.5 5.55161 97.8951 4.84835 98.5983C4.14509 99.3016 3.75 100.255 3.75 101.25C3.75 102.245 4.14509 103.198 4.84835 103.902C5.55161 104.605 6.50544 105 7.5 105H112.5C113.495 105 114.448 104.605 115.152 103.902C115.855 103.198 116.25 102.245 116.25 101.25C116.25 100.255 115.855 99.3016 115.152 98.5983C114.448 97.8951 113.495 97.5 112.5 97.5ZM18.75 52.5H37.5C38.4946 52.5 39.4484 52.1049 40.1516 51.4016C40.8549 50.6984 41.25 49.7446 41.25 48.75V22.5H78.75V33.75C78.75 34.7446 79.1451 35.6984 79.8483 36.4016C80.5516 37.1049 81.5054 37.5 82.5 37.5H101.25V97.5H71.25V78.75C71.25 77.7554 70.8549 76.8016 70.1517 76.0983C69.4484 75.3951 68.4946 75 67.5 75H52.5C51.5054 75 50.5516 75.3951 49.8484 76.0983C49.1451 76.8016 48.75 77.7554 48.75 78.75V97.5H18.75V52.5ZM63.75 97.5H56.25V82.5H63.75V97.5ZM52.5 33.75C52.5 32.7554 52.8951 31.8016 53.5984 31.0984C54.3016 30.3951 55.2554 30 56.25 30H63.75C64.7446 30 65.6984 30.3951 66.4017 31.0984C67.1049 31.8016 67.5 32.7554 67.5 33.75C67.5 34.7446 67.1049 35.6984 66.4017 36.4016C65.6984 37.1049 64.7446 37.5 63.75 37.5H56.25C55.2554 37.5 54.3016 37.1049 53.5984 36.4016C52.8951 35.6984 52.5 34.7446 52.5 33.75ZM52.5 48.75C52.5 47.7554 52.8951 46.8016 53.5984 46.0984C54.3016 45.3951 55.2554 45 56.25 45H63.75C64.7446 45 65.6984 45.3951 66.4017 46.0984C67.1049 46.8016 67.5 47.7554 67.5 48.75C67.5 49.7446 67.1049 50.6984 66.4017 51.4016C65.6984 52.1049 64.7446 52.5 63.75 52.5H56.25C55.2554 52.5 54.3016 52.1049 53.5984 51.4016C52.8951 50.6984 52.5 49.7446 52.5 48.75ZM78.75 48.75C78.75 47.7554 79.1451 46.8016 79.8483 46.0984C80.5516 45.3951 81.5054 45 82.5 45H90C90.9946 45 91.9484 45.3951 92.6517 46.0984C93.3549 46.8016 93.75 47.7554 93.75 48.75C93.75 49.7446 93.3549 50.6984 92.6517 51.4016C91.9484 52.1049 90.9946 52.5 90 52.5H82.5C81.5054 52.5 80.5516 52.1049 79.8483 51.4016C79.1451 50.6984 78.75 49.7446 78.75 48.75ZM41.25 63.75C41.25 64.7446 40.8549 65.6984 40.1516 66.4017C39.4484 67.1049 38.4946 67.5 37.5 67.5H30C29.0054 67.5 28.0516 67.1049 27.3484 66.4017C26.6451 65.6984 26.25 64.7446 26.25 63.75C26.25 62.7554 26.6451 61.8016 27.3484 61.0983C28.0516 60.3951 29.0054 60 30 60H37.5C38.4946 60 39.4484 60.3951 40.1516 61.0983C40.8549 61.8016 41.25 62.7554 41.25 63.75ZM41.25 78.75C41.25 79.7446 40.8549 80.6984 40.1516 81.4017C39.4484 82.1049 38.4946 82.5 37.5 82.5H30C29.0054 82.5 28.0516 82.1049 27.3484 81.4017C26.6451 80.6984 26.25 79.7446 26.25 78.75C26.25 77.7554 26.6451 76.8016 27.3484 76.0983C28.0516 75.3951 29.0054 75 30 75H37.5C38.4946 75 39.4484 75.3951 40.1516 76.0983C40.8549 76.8016 41.25 77.7554 41.25 78.75ZM52.5 63.75C52.5 62.7554 52.8951 61.8016 53.5984 61.0983C54.3016 60.3951 55.2554 60 56.25 60H63.75C64.7446 60 65.6984 60.3951 66.4017 61.0983C67.1049 61.8016 67.5 62.7554 67.5 63.75C67.5 64.7446 67.1049 65.6984 66.4017 66.4017C65.6984 67.1049 64.7446 67.5 63.75 67.5H56.25C55.2554 67.5 54.3016 67.1049 53.5984 66.4017C52.8951 65.6984 52.5 64.7446 52.5 63.75ZM78.75 63.75C78.75 62.7554 79.1451 61.8016 79.8483 61.0983C80.5516 60.3951 81.5054 60 82.5 60H90C90.9946 60 91.9484 60.3951 92.6517 61.0983C93.3549 61.8016 93.75 62.7554 93.75 63.75C93.75 64.7446 93.3549 65.6984 92.6517 66.4017C91.9484 67.1049 90.9946 67.5 90 67.5H82.5C81.5054 67.5 80.5516 67.1049 79.8483 66.4017C79.1451 65.6984 78.75 64.7446 78.75 63.75ZM78.75 78.75C78.75 77.7554 79.1451 76.8016 79.8483 76.0983C80.5516 75.3951 81.5054 75 82.5 75H90C90.9946 75 91.9484 75.3951 92.6517 76.0983C93.3549 76.8016 93.75 77.7554 93.75 78.75C93.75 79.7446 93.3549 80.6984 92.6517 81.4017C91.9484 82.1049 90.9946 82.5 90 82.5H82.5C81.5054 82.5 80.5516 82.1049 79.8483 81.4017C79.1451 80.6984 78.75 79.7446 78.75 78.75Z" fill="#2F4FA3"/>
</svg>
