<svg width="120" height="120" viewBox="0 0 120 120" fill="none" xmlns="http://www.w3.org/2000/svg">
<path d="M119.203 50.5829L107.241 26.6485C106.8 25.7676 106.19 24.9821 105.446 24.3369C104.701 23.6917 103.837 23.1994 102.903 22.8882C101.968 22.5769 100.982 22.4528 99.9991 22.523C99.0165 22.5931 98.0575 22.8561 97.1766 23.297L85.5188 29.1235L60.961 22.6266C60.3308 22.4627 59.6692 22.4627 59.0391 22.6266L34.4813 29.1235L22.8235 23.297C21.9426 22.8561 20.9835 22.5931 20.001 22.523C19.0185 22.4528 18.0318 22.5769 17.0972 22.8882C16.1627 23.1994 15.2986 23.6917 14.5543 24.3369C13.81 24.9821 13.2001 25.7676 12.7594 26.6485L0.796914 50.5782C0.356083 51.4591 0.0930873 52.4182 0.0229458 53.4007C-0.0471957 54.3832 0.0768909 55.3699 0.388119 56.3045C0.699348 57.239 1.19162 58.1031 1.83683 58.8474C2.48204 59.5917 3.26754 60.2016 4.14848 60.6423L16.8047 66.9751L42.8157 85.5517C43.1989 85.8243 43.6298 86.0231 44.086 86.1376L74.086 93.6376C74.7142 93.7951 75.3726 93.7873 75.9969 93.6148C76.6212 93.4423 77.1902 93.111 77.6485 92.6532L103.463 66.8345L115.847 60.6423C117.625 59.7523 118.977 58.1927 119.605 56.3064C120.234 54.4201 120.087 52.3614 119.198 50.5829H119.203ZM93.4735 66.2251L77.3438 53.3063C76.6212 52.7277 75.7101 52.4367 74.7858 52.4895C73.8616 52.5423 72.9895 52.9351 72.3375 53.5923C63.9891 62.0016 54.6844 60.9376 48.75 57.1876L69.0188 37.5001H83.9297L96.6844 63.0048L93.4735 66.2251ZM19.4672 30.0001L29.0625 34.7907L17.0766 58.7204L7.50004 53.9345L19.4672 30.0001ZM73.8422 85.8423L46.6032 79.036L23.5407 62.5641L36.6657 36.3141L60 30.1313L64.5938 31.3454L43.5 51.8204L43.4625 51.8626C42.6685 52.6566 42.0629 53.6188 41.6904 54.6782C41.318 55.7375 41.1881 56.867 41.3105 57.9833C41.4329 59.0995 41.8043 60.174 42.3975 61.1275C42.9906 62.081 43.7903 62.8891 44.7375 63.4923C54.375 69.647 66.0047 68.6485 75.1641 61.1485L88.125 71.5595L73.8422 85.8423ZM102.905 58.7157L90.9422 34.8095L100.533 30.0001L112.5 53.9345L102.905 58.7157ZM61.7719 102.155C61.5693 102.965 61.1019 103.685 60.4438 104.2C59.7856 104.714 58.9745 104.994 58.1391 104.995C57.831 104.995 57.5241 104.957 57.225 104.883L37.6922 99.9985C37.2354 99.8858 36.8042 99.6869 36.4219 99.4126L24.0704 90.5907C23.3109 89.9944 22.8107 89.1282 22.674 88.1723C22.5372 87.2164 22.7744 86.2447 23.3363 85.4594C23.8981 84.674 24.7411 84.1357 25.6899 83.9564C26.6387 83.7771 27.6201 83.9708 28.4297 84.497L40.2 92.9063L59.0625 97.6126C60.0272 97.8539 60.8565 98.4685 61.3681 99.3211C61.8797 100.174 62.0317 101.195 61.7907 102.159L61.7719 102.155Z" fill="#2F4FA3"/>
</svg>
