<svg width="120" height="120" viewBox="0 0 120 120" fill="none" xmlns="http://www.w3.org/2000/svg">
<path d="M112.5 97.5H105V45C105 43.0109 104.21 41.1032 102.803 39.6967C101.397 38.2902 99.4891 37.5 97.5 37.5H67.5V15C67.5009 13.6419 67.133 12.309 66.4355 11.1436C65.738 9.97821 64.7372 9.02409 63.5399 8.38307C62.3425 7.74205 60.9936 7.43818 59.6371 7.50391C58.2805 7.56963 56.9673 8.00247 55.8375 8.75624L18.3375 33.75C17.3088 34.4363 16.4657 35.3664 15.8834 36.4574C15.3011 37.5484 14.9977 38.7665 15 40.0031V97.5H7.5C6.50544 97.5 5.55161 97.8951 4.84835 98.5984C4.14509 99.3016 3.75 100.255 3.75 101.25C3.75 102.245 4.14509 103.198 4.84835 103.902C5.55161 104.605 6.50544 105 7.5 105H112.5C113.495 105 114.448 104.605 115.152 103.902C115.855 103.198 116.25 102.245 116.25 101.25C116.25 100.255 115.855 99.3016 115.152 98.5984C114.448 97.8951 113.495 97.5 112.5 97.5ZM97.5 45V97.5H67.5V45H97.5ZM22.5 40.0031L60 15V97.5H22.5V40.0031ZM52.5 52.5V60C52.5 60.9946 52.1049 61.9484 51.4016 62.6516C50.6984 63.3549 49.7446 63.75 48.75 63.75C47.7554 63.75 46.8016 63.3549 46.0984 62.6516C45.3951 61.9484 45 60.9946 45 60V52.5C45 51.5054 45.3951 50.5516 46.0984 49.8483C46.8016 49.1451 47.7554 48.75 48.75 48.75C49.7446 48.75 50.6984 49.1451 51.4016 49.8483C52.1049 50.5516 52.5 51.5054 52.5 52.5ZM37.5 52.5V60C37.5 60.9946 37.1049 61.9484 36.4016 62.6516C35.6984 63.3549 34.7446 63.75 33.75 63.75C32.7554 63.75 31.8016 63.3549 31.0984 62.6516C30.3951 61.9484 30 60.9946 30 60V52.5C30 51.5054 30.3951 50.5516 31.0984 49.8483C31.8016 49.1451 32.7554 48.75 33.75 48.75C34.7446 48.75 35.6984 49.1451 36.4016 49.8483C37.1049 50.5516 37.5 51.5054 37.5 52.5ZM37.5 78.75V86.25C37.5 87.2446 37.1049 88.1984 36.4016 88.9017C35.6984 89.6049 34.7446 90 33.75 90C32.7554 90 31.8016 89.6049 31.0984 88.9017C30.3951 88.1984 30 87.2446 30 86.25V78.75C30 77.7554 30.3951 76.8016 31.0984 76.0983C31.8016 75.3951 32.7554 75 33.75 75C34.7446 75 35.6984 75.3951 36.4016 76.0983C37.1049 76.8016 37.5 77.7554 37.5 78.75ZM52.5 78.75V86.25C52.5 87.2446 52.1049 88.1984 51.4016 88.9017C50.6984 89.6049 49.7446 90 48.75 90C47.7554 90 46.8016 89.6049 46.0984 88.9017C45.3951 88.1984 45 87.2446 45 86.25V78.75C45 77.7554 45.3951 76.8016 46.0984 76.0983C46.8016 75.3951 47.7554 75 48.75 75C49.7446 75 50.6984 75.3951 51.4016 76.0983C52.1049 76.8016 52.5 77.7554 52.5 78.75Z" fill="#2F4FA3"/>
</svg>
