<svg width="120" height="120" viewBox="0 0 120 120" fill="none" xmlns="http://www.w3.org/2000/svg">
<path d="M13.125 60C12.1304 60 11.1766 59.6049 10.4733 58.9016C9.77009 58.1984 9.375 57.2446 9.375 56.25C9.375 55.2554 9.77009 54.3016 10.4733 53.5984C11.1766 52.8951 12.1304 52.5 13.125 52.5H26.25C27.2446 52.5 28.1984 52.1049 28.9016 51.4016C29.6049 50.6984 30 49.7446 30 48.75C30 47.7554 29.6049 46.8016 28.9016 46.0984C28.1984 45.3951 27.2446 45 26.25 45H18.75C15.7663 45 12.9048 43.8147 10.795 41.705C8.68526 39.5952 7.5 36.7337 7.5 33.75C7.5 30.7663 8.68526 27.9048 10.795 25.795C12.9048 23.6853 15.7663 22.5 18.75 22.5C18.75 21.5054 19.1451 20.5516 19.8484 19.8484C20.5516 19.1451 21.5054 18.75 22.5 18.75C23.4946 18.75 24.4484 19.1451 25.1516 19.8484C25.8549 20.5516 26.25 21.5054 26.25 22.5H30C30.9946 22.5 31.9484 22.8951 32.6516 23.5984C33.3549 24.3016 33.75 25.2554 33.75 26.25C33.75 27.2446 33.3549 28.1984 32.6516 28.9016C31.9484 29.6049 30.9946 30 30 30H18.75C17.7554 30 16.8016 30.3951 16.0984 31.0984C15.3951 31.8016 15 32.7554 15 33.75C15 34.7446 15.3951 35.6984 16.0984 36.4016C16.8016 37.1049 17.7554 37.5 18.75 37.5H26.25C29.2337 37.5 32.0952 38.6853 34.205 40.795C36.3147 42.9048 37.5 45.7663 37.5 48.75C37.5 51.7337 36.3147 54.5952 34.205 56.705C32.0952 58.8147 29.2337 60 26.25 60C26.25 60.9946 25.8549 61.9484 25.1516 62.6517C24.4484 63.3549 23.4946 63.75 22.5 63.75C21.5054 63.75 20.5516 63.3549 19.8484 62.6517C19.1451 61.9484 18.75 60.9946 18.75 60H13.125ZM108.75 26.25V90C108.75 91.9891 107.96 93.8968 106.553 95.3033C105.147 96.7098 103.239 97.5 101.25 97.5H18.75C16.7609 97.5 14.8532 96.7098 13.4467 95.3033C12.0402 93.8968 11.25 91.9891 11.25 90V71.25C11.25 70.2554 11.6451 69.3016 12.3483 68.5983C13.0516 67.8951 14.0054 67.5 15 67.5C15.9946 67.5 16.9484 67.8951 17.6516 68.5983C18.3549 69.3016 18.75 70.2554 18.75 71.25V90H75V75H37.5C36.5054 75 35.5516 74.6049 34.8484 73.9017C34.1451 73.1984 33.75 72.2446 33.75 71.25C33.75 70.2554 34.1451 69.3016 34.8484 68.5983C35.5516 67.8951 36.5054 67.5 37.5 67.5H75V52.5H48.75C47.7554 52.5 46.8016 52.1049 46.0984 51.4016C45.3951 50.6984 45 49.7446 45 48.75C45 47.7554 45.3951 46.8016 46.0984 46.0984C46.8016 45.3951 47.7554 45 48.75 45H101.25V30H45C44.0054 30 43.0516 29.6049 42.3484 28.9016C41.6451 28.1984 41.25 27.2446 41.25 26.25C41.25 25.2554 41.6451 24.3016 42.3484 23.5984C43.0516 22.8951 44.0054 22.5 45 22.5H105C105.995 22.5 106.948 22.8951 107.652 23.5984C108.355 24.3016 108.75 25.2554 108.75 26.25ZM82.5 67.5H101.25V52.5H82.5V67.5ZM101.25 90V75H82.5V90H101.25Z" fill="#2F4FA3"/>
</svg>
