<svg width="120" height="120" viewBox="0 0 120 120" fill="none" xmlns="http://www.w3.org/2000/svg">
<path d="M114.75 70.5001C114.356 70.7956 113.908 71.0106 113.431 71.1328C112.954 71.255 112.457 71.2821 111.97 71.2124C111.482 71.1428 111.013 70.9778 110.589 70.7269C110.166 70.476 109.795 70.1441 109.5 69.7501C107.24 66.712 104.298 64.2469 100.911 62.5535C97.5238 60.86 93.7866 59.9854 90 60.0001C89.2625 60 88.5415 59.7826 87.927 59.3749C87.3126 58.9672 86.8319 58.3873 86.5453 57.7079C86.3506 57.2465 86.2503 56.7509 86.2503 56.2501C86.2503 55.7493 86.3506 55.2537 86.5453 54.7923C86.8319 54.1129 87.3126 53.5331 87.927 53.1254C88.5415 52.7177 89.2625 52.5002 90 52.5001C92.104 52.4999 94.1659 51.9097 95.9514 50.7964C97.7368 49.6831 99.1742 48.0914 100.1 46.2022C101.027 44.3129 101.404 42.2017 101.191 40.1085C100.977 38.0153 100.181 36.0239 98.8926 34.3605C97.604 32.6972 95.8748 31.4285 93.9014 30.6986C91.9279 29.9688 89.7894 29.807 87.7286 30.2316C85.6678 30.6562 83.7674 31.6503 82.2432 33.1008C80.719 34.5514 79.6322 36.4003 79.1062 38.4376C78.9831 38.9147 78.7672 39.3628 78.4709 39.7565C78.1746 40.1501 77.8037 40.4815 77.3793 40.7318C76.9549 40.9821 76.4853 41.1463 75.9975 41.2151C75.5096 41.284 75.013 41.256 74.5359 41.1329C74.0588 41.0098 73.6107 40.7939 73.217 40.4976C72.8234 40.2013 72.492 39.8304 72.2417 39.406C71.9914 38.9816 71.8272 38.512 71.7583 38.0242C71.6895 37.5363 71.7175 37.0397 71.8406 36.5626C72.5707 33.7375 73.9501 31.1218 75.869 28.9236C77.7879 26.7254 80.1933 25.0054 82.8939 23.9005C85.5945 22.7955 88.5158 22.3361 91.4252 22.5588C94.3346 22.7815 97.1518 23.6802 99.6528 25.1833C102.154 26.6864 104.269 28.7524 105.831 31.2171C107.393 33.6817 108.359 36.4769 108.65 39.3802C108.942 42.2835 108.552 45.2147 107.511 47.9408C106.471 50.6669 104.808 53.1124 102.656 55.0829C107.755 57.2907 112.188 60.7942 115.514 65.2454C115.809 65.6404 116.024 66.0898 116.146 66.5678C116.267 67.0458 116.293 67.5432 116.222 68.0313C116.151 68.5194 115.985 68.9887 115.732 69.4124C115.479 69.836 115.146 70.2056 114.75 70.5001ZM89.4937 99.3751C89.765 99.8019 89.9472 100.279 90.0293 100.778C90.1114 101.277 90.0917 101.788 89.9714 102.279C89.851 102.77 89.6326 103.232 89.3291 103.637C89.0257 104.041 88.6436 104.38 88.2057 104.634C87.7678 104.887 87.2833 105.049 86.7812 105.11C86.2791 105.171 85.7699 105.129 85.2842 104.988C84.7985 104.847 84.3463 104.61 83.9548 104.29C83.5633 103.969 83.2406 103.573 83.0062 103.125C80.6439 99.1251 77.2796 95.8102 73.2451 93.5073C69.2106 91.2044 64.6454 89.9933 60 89.9933C55.3545 89.9933 50.7893 91.2044 46.7548 93.5073C42.7204 95.8102 39.356 99.1251 36.9937 103.125C36.7593 103.573 36.4366 103.969 36.0451 104.29C35.6537 104.61 35.2015 104.847 34.7157 104.988C34.23 105.129 33.7208 105.171 33.2187 105.11C32.7166 105.049 32.2321 104.887 31.7942 104.634C31.3564 104.38 30.9742 104.041 30.6708 103.637C30.3673 103.232 30.1489 102.77 30.0286 102.279C29.9082 101.788 29.8885 101.277 29.9706 100.778C30.0527 100.279 30.2349 99.8019 30.5062 99.3751C34.1418 93.1284 39.6852 88.2126 46.3218 85.3501C42.5874 82.4909 39.8429 78.5333 38.474 74.0337C37.1051 69.534 37.1807 64.7185 38.6902 60.264C40.1996 55.8096 43.067 51.9401 46.8893 49.1995C50.7117 46.459 55.2967 44.9851 60 44.9851C64.7032 44.9851 69.2883 46.459 73.1106 49.1995C76.9329 51.9401 79.8003 55.8096 81.3097 60.264C82.8192 64.7185 82.8948 69.534 81.5259 74.0337C80.157 78.5333 77.4125 82.4909 73.6781 85.3501C80.3147 88.2126 85.8581 93.1284 89.4937 99.3751ZM60 82.5001C62.9667 82.5001 65.8668 81.6204 68.3335 79.9721C70.8002 78.3239 72.7228 75.9812 73.8582 73.2404C74.9935 70.4995 75.2905 67.4835 74.7117 64.5737C74.133 61.664 72.7043 58.9913 70.6066 56.8935C68.5088 54.7957 65.836 53.3671 62.9263 52.7883C60.0166 52.2095 57.0006 52.5066 54.2597 53.6419C51.5188 54.7772 49.1761 56.6998 47.5279 59.1666C45.8797 61.6333 45 64.5334 45 67.5001C45 71.4784 46.5803 75.2937 49.3934 78.1067C52.2064 80.9198 56.0217 82.5001 60 82.5001ZM33.75 56.2501C33.75 55.2555 33.3549 54.3017 32.6516 53.5985C31.9483 52.8952 30.9945 52.5001 30 52.5001C27.8959 52.4999 25.834 51.9097 24.0486 50.7964C22.2631 49.6831 20.8257 48.0914 19.8995 46.2022C18.9733 44.3129 18.5955 42.2017 18.809 40.1085C19.0225 38.0153 19.8188 36.0239 21.1073 34.3605C22.3959 32.6972 24.1251 31.4285 26.0985 30.6986C28.072 29.9688 30.2106 29.807 32.2714 30.2316C34.3322 30.6562 36.2326 31.6503 37.7567 33.1008C39.2809 34.5514 40.3677 36.4003 40.8937 38.4376C41.1423 39.4011 41.7635 40.2263 42.6206 40.7318C43.4777 41.2373 44.5005 41.3816 45.464 41.1329C46.4275 40.8843 47.2528 40.2631 47.7582 39.406C48.2637 38.5489 48.408 37.5261 48.1593 36.5626C47.4292 33.7375 46.0498 31.1218 44.1309 28.9236C42.212 26.7254 39.8066 25.0054 37.106 23.9005C34.4054 22.7955 31.4842 22.3361 28.5748 22.5588C25.6654 22.7815 22.8481 23.6802 20.3471 25.1833C17.8461 26.6864 15.7305 28.7524 14.1685 31.2171C12.6065 33.6817 11.6413 36.4769 11.3497 39.3802C11.058 42.2835 11.448 45.2147 12.4886 47.9408C13.5292 50.6669 15.1917 53.1124 17.3437 55.0829C12.2497 57.2928 7.82205 60.7962 4.49996 65.2454C3.9026 66.0411 3.64578 67.0414 3.78599 68.0264C3.9262 69.0114 4.45196 69.9004 5.24761 70.4978C6.04326 71.0951 7.04362 71.3519 8.02863 71.2117C9.01364 71.0715 9.9026 70.5458 10.5 69.7501C12.7602 66.712 15.7022 64.2469 19.0891 62.5535C22.4761 60.86 26.2133 59.9854 30 60.0001C30.9945 60.0001 31.9483 59.605 32.6516 58.9018C33.3549 58.1985 33.75 57.2447 33.75 56.2501Z" fill="#2F4FA3"/>
</svg>
