<svg width="215" height="40" viewBox="0 0 215 40" fill="none" xmlns="http://www.w3.org/2000/svg">
<g clip-path="url(#clip0_6369_755)">
<path d="M169.366 38.7432V28.0275H170.935V29.7144H171.088C171.311 29.1393 171.671 28.692 172.168 28.3726C172.666 28.053 173.262 27.8933 173.957 27.8933C174.658 27.8933 175.241 28.053 175.707 28.3726C176.179 28.692 176.545 29.1393 176.807 29.7144H176.922C177.202 29.1585 177.613 28.7176 178.155 28.3917C178.704 28.0595 179.357 27.8933 180.116 27.8933C181.072 27.8933 181.856 28.1936 182.468 28.7943C183.08 29.3885 183.386 30.3151 183.386 31.5738V38.7432H181.741V31.5738C181.741 30.7815 181.525 30.216 181.091 29.8773C180.658 29.5387 180.148 29.3694 179.561 29.3694C178.815 29.3694 178.235 29.5994 177.82 30.0595C177.412 30.5131 177.208 31.0818 177.208 31.7655V38.7432H175.525V31.4013C175.525 30.7943 175.331 30.3054 174.942 29.9349C174.553 29.5578 174.046 29.3694 173.421 29.3694C172.994 29.3694 172.596 29.4844 172.226 29.7144C171.856 29.9444 171.556 30.2607 171.327 30.6633C171.104 31.0658 170.992 31.5291 170.992 32.053V38.7432H169.366Z" fill="#F7F9FC"/>
<path d="M165.636 34.373V28.028H167.262V38.7438H165.636V36.9225H165.521C165.266 37.4657 164.874 37.929 164.345 38.3124C163.822 38.6957 163.156 38.8841 162.346 38.878C161.677 38.878 161.084 38.7342 160.567 38.4467C160.051 38.1526 159.643 37.7053 159.343 37.1047C159.05 36.504 158.903 35.7468 158.903 34.8331V28.028H160.529V34.7372C160.529 35.5104 160.749 36.1302 161.189 36.5967C161.635 37.0631 162.199 37.2932 162.882 37.2868C163.29 37.2868 163.704 37.1845 164.125 36.9801C164.552 36.7692 164.909 36.4497 165.196 36.0216C165.489 35.5871 165.636 35.0376 165.636 34.373Z" fill="#F7F9FC"/>
<path d="M152.534 38.7433V28.0278H154.102V29.6572H154.217C154.415 29.1268 154.769 28.6987 155.279 28.3729C155.795 28.0406 156.372 27.8744 157.01 27.8744C157.131 27.8744 157.281 27.8776 157.459 27.8841C157.638 27.8841 157.775 27.8873 157.87 27.8936V29.5614C157.813 29.5486 157.686 29.5294 157.488 29.5039C157.29 29.4783 157.08 29.4655 156.857 29.4655C156.34 29.4655 155.878 29.5742 155.47 29.7914C155.062 30.0087 154.74 30.3058 154.504 30.6828C154.274 31.0598 154.16 31.4911 154.16 31.9767V38.7433H152.534Z" fill="#F7F9FC"/>
<path d="M146.088 38.9731C145.126 38.9731 144.281 38.7432 143.554 38.2832C142.827 37.823 142.26 37.1777 141.852 36.347C141.45 35.5163 141.249 34.5515 141.249 33.4524C141.249 32.3342 141.45 31.3597 141.852 30.5291C142.26 29.692 142.827 29.0435 143.554 28.5834C144.281 28.1233 145.126 27.8933 146.088 27.8933C147.057 27.8933 147.906 28.1233 148.632 28.5834C149.359 29.0435 149.927 29.692 150.334 30.5291C150.743 31.3597 150.947 32.3342 150.947 33.4524C150.947 34.5515 150.743 35.5163 150.334 36.347C149.927 37.1777 149.359 37.823 148.632 38.2832C147.906 38.7432 147.057 38.9731 146.088 38.9731ZM146.088 37.4972C146.828 37.4972 147.434 37.3087 147.906 36.9317C148.377 36.5547 148.728 36.0595 148.957 35.446C149.187 34.8262 149.302 34.1617 149.302 33.4524C149.302 32.7304 149.187 32.0595 148.957 31.4396C148.728 30.8198 148.377 30.3214 147.906 29.9444C147.434 29.561 146.828 29.3694 146.088 29.3694C145.362 29.3694 144.762 29.561 144.29 29.9444C143.819 30.3214 143.468 30.8198 143.238 31.4396C143.009 32.0595 142.894 32.7304 142.894 33.4524C142.894 34.1617 143.009 34.8262 143.238 35.446C143.468 36.0595 143.819 36.5547 144.29 36.9317C144.762 37.3087 145.362 37.4972 146.088 37.4972Z" fill="#F7F9FC"/>
<path d="M132.184 38.7434V24.4624H140.733V25.9959H133.905V30.9799H140.083V32.5135H133.905V38.7434H132.184Z" fill="#F7F9FC"/>
<path d="M125.622 30.4428L124.15 30.8454C124.009 30.4812 123.767 30.1361 123.423 29.8103C123.085 29.478 122.556 29.3118 121.835 29.3118C121.185 29.3118 120.643 29.4652 120.209 29.7719C119.776 30.0722 119.559 30.4492 119.559 30.9029C119.559 31.3118 119.706 31.6377 119.999 31.8806C120.299 32.1233 120.764 32.3214 121.396 32.4748L122.983 32.8582C123.933 33.0882 124.641 33.4429 125.106 33.9221C125.578 34.4013 125.814 35.0115 125.814 35.7527C125.814 36.3662 125.638 36.9157 125.288 37.4013C124.937 37.8869 124.449 38.2703 123.824 38.5513C123.2 38.8328 122.473 38.9731 121.644 38.9731C120.554 38.9731 119.652 38.7336 118.938 38.2542C118.23 37.7751 117.781 37.0818 117.589 36.1745L119.139 35.7911C119.285 36.3662 119.566 36.7975 119.98 37.085C120.401 37.3725 120.949 37.5163 121.625 37.5163C122.384 37.5163 122.989 37.3534 123.442 37.0275C123.901 36.6953 124.13 36.3022 124.13 35.8486C124.13 35.0946 123.602 34.5898 122.543 34.3342L120.764 33.9125C119.782 33.6761 119.062 33.3151 118.603 32.8294C118.144 32.3438 117.914 31.7336 117.914 30.9987C117.914 30.3917 118.083 29.855 118.421 29.3885C118.765 28.9221 119.234 28.5579 119.827 28.2959C120.42 28.0275 121.089 27.8933 121.835 27.8933C122.9 27.8933 123.732 28.1297 124.331 28.6026C124.937 29.069 125.368 29.6825 125.622 30.4428Z" fill="#F7F9FC"/>
<path d="M116.308 30.4428L114.835 30.8454C114.695 30.4812 114.453 30.1361 114.108 29.8103C113.771 29.478 113.242 29.3118 112.521 29.3118C111.871 29.3118 111.329 29.4652 110.895 29.7719C110.461 30.0722 110.245 30.4492 110.245 30.9029C110.245 31.3118 110.391 31.6377 110.685 31.8806C110.984 32.1233 111.45 32.3214 112.081 32.4748L113.669 32.8582C114.618 33.0882 115.326 33.4429 115.792 33.9221C116.263 34.4013 116.499 35.0115 116.499 35.7527C116.499 36.3662 116.324 36.9157 115.973 37.4013C115.623 37.8869 115.135 38.2703 114.51 38.5513C113.885 38.8328 113.159 38.9731 112.33 38.9731C111.24 38.9731 110.337 38.7336 109.623 38.2542C108.916 37.7751 108.466 37.0818 108.275 36.1745L109.824 35.7911C109.971 36.3662 110.251 36.7975 110.666 37.085C111.086 37.3725 111.635 37.5163 112.31 37.5163C113.069 37.5163 113.675 37.3534 114.127 37.0275C114.587 36.6953 114.816 36.3022 114.816 35.8486C114.816 35.0946 114.287 34.5898 113.229 34.3342L111.45 33.9125C110.468 33.6761 109.748 33.3151 109.289 32.8294C108.829 32.3438 108.6 31.7336 108.6 30.9987C108.6 30.3917 108.769 29.855 109.107 29.3885C109.451 28.9221 109.92 28.5579 110.513 28.2959C111.106 28.0275 111.775 27.8933 112.521 27.8933C113.586 27.8933 114.418 28.1297 115.017 28.6026C115.623 29.069 116.053 29.6825 116.308 30.4428Z" fill="#F7F9FC"/>
<path d="M102.785 38.9731C101.759 38.9731 100.869 38.7432 100.117 38.2832C99.3713 37.823 98.7974 37.1809 98.396 36.3566C97.9941 35.5259 97.7932 34.5642 97.7932 33.4716C97.7932 32.3726 97.9911 31.4045 98.3861 30.5674C98.7815 29.7304 99.3363 29.0754 100.05 28.6026C100.771 28.1297 101.612 27.8933 102.575 27.8933C103.13 27.8933 103.681 27.986 104.23 28.1713C104.778 28.3566 105.275 28.6569 105.722 29.0722C106.174 29.4875 106.534 30.0371 106.802 30.7208C107.07 31.4045 107.204 32.2448 107.204 33.2416V33.9508H98.9599V32.5323H106.314L105.559 33.069C105.559 32.3534 105.447 31.7176 105.224 31.1617C105.001 30.6058 104.666 30.1681 104.22 29.8486C103.78 29.5291 103.232 29.3694 102.575 29.3694C101.918 29.3694 101.354 29.5323 100.882 29.8582C100.417 30.1776 100.06 30.5962 99.8112 31.1138C99.5627 31.6313 99.4382 32.1873 99.4382 32.7815V33.7208C99.4382 34.5323 99.5787 35.2192 99.8591 35.7815C100.14 36.3438 100.532 36.7719 101.035 37.0658C101.539 37.3534 102.123 37.4972 102.785 37.4972C103.213 37.4972 103.602 37.4365 103.952 37.315C104.303 37.1873 104.606 36.9988 104.861 36.7496C105.116 36.494 105.31 36.1809 105.444 35.8102L107.032 36.2703C106.866 36.8071 106.585 37.2799 106.19 37.6888C105.801 38.0914 105.317 38.4075 104.736 38.6379C104.156 38.8614 103.506 38.9731 102.785 38.9731Z" fill="#F7F9FC"/>
<path d="M89.3768 32.3023V38.7432H87.7512V28.0275H89.3194V29.7144H89.4724C89.7212 29.1649 90.1006 28.724 90.6105 28.3917C91.1204 28.0595 91.7803 27.8933 92.59 27.8933C93.3108 27.8933 93.9417 28.0403 94.4836 28.3342C95.0258 28.6282 95.4463 29.0754 95.7462 29.6761C96.0521 30.2703 96.2051 31.0243 96.2051 31.938V38.7432H94.5795V32.053C94.5795 31.216 94.3595 30.561 93.9196 30.0882C93.4797 29.609 92.8804 29.3694 92.1216 29.3694C91.5988 29.3694 91.1303 29.4844 90.7156 29.7144C90.3012 29.9444 89.9731 30.2767 89.7307 30.7112C89.4948 31.1457 89.3768 31.6761 89.3768 32.3023Z" fill="#F7F9FC"/>
<path d="M84.0215 38.7432V28.0276H85.6475V38.7432H84.0215ZM84.8442 26.2448C84.5253 26.2448 84.251 26.1362 84.0215 25.9189C83.792 25.7017 83.6775 25.4397 83.6775 25.133C83.6775 24.8263 83.792 24.5643 84.0215 24.3471C84.251 24.1298 84.5253 24.0212 84.8442 24.0212C85.1627 24.0212 85.4371 24.1298 85.6665 24.3471C85.896 24.5643 86.0109 24.8263 86.0109 25.133C86.0109 25.4397 85.896 25.7017 85.6665 25.9189C85.4371 26.1362 85.1627 26.2448 84.8442 26.2448Z" fill="#F7F9FC"/>
<path d="M82.2621 30.4428L80.7895 30.8454C80.6491 30.4812 80.4071 30.1361 80.0627 29.8103C79.7248 29.478 79.1954 29.3118 78.4751 29.3118C77.8248 29.3118 77.2829 29.4652 76.8495 29.7719C76.4157 30.0722 76.1991 30.4492 76.1991 30.9029C76.1991 31.3118 76.3457 31.6377 76.639 31.8806C76.9385 32.1233 77.4039 32.3214 78.0352 32.4748L79.6228 32.8582C80.5726 33.0882 81.2804 33.4429 81.7458 33.9221C82.2176 34.4013 82.4536 35.0115 82.4536 35.7527C82.4536 36.3662 82.2781 36.9157 81.9277 37.4013C81.5768 37.8869 81.089 38.2703 80.4641 38.5513C79.8393 38.8328 79.1125 38.9731 78.2837 38.9731C77.1935 38.9731 76.2916 38.7336 75.5774 38.2542C74.8696 37.7751 74.4202 37.0818 74.2288 36.1745L75.7783 35.7911C75.9248 36.3662 76.2052 36.7975 76.6196 37.085C77.0405 37.3725 77.5888 37.5163 78.2647 37.5163C79.0235 37.5163 79.6293 37.3534 80.0817 37.0275C80.5406 36.6953 80.7705 36.3022 80.7705 35.8486C80.7705 35.0946 80.2411 34.5898 79.1829 34.3342L77.4039 33.9125C76.4221 33.6761 75.7018 33.3151 75.2425 32.8294C74.7836 32.3438 74.5541 31.7336 74.5541 30.9987C74.5541 30.3917 74.7231 29.855 75.061 29.3885C75.4054 28.9221 75.8738 28.5579 76.4667 28.2959C77.0595 28.0275 77.7293 27.8933 78.4751 27.8933C79.5398 27.8933 80.3721 28.1297 80.971 28.6026C81.5768 29.069 82.0072 29.6825 82.2621 30.4428Z" fill="#F7F9FC"/>
<path d="M70.9771 34.373V28.028H72.6027V38.7438H70.9771V36.9225H70.8622C70.6072 37.4657 70.2149 37.929 69.686 38.3124C69.1631 38.6957 68.4968 38.8841 67.687 38.878C67.0177 38.878 66.4248 38.7342 65.9084 38.4467C65.3917 38.1526 64.9838 37.7053 64.6843 37.1047C64.3909 36.504 64.2444 35.7468 64.2444 34.8331V28.028H65.87V34.7372C65.87 35.5104 66.09 36.1302 66.5299 36.5967C66.9762 37.0631 67.5405 37.2932 68.2228 37.2868C68.6308 37.2868 69.0452 37.1845 69.466 36.9801C69.893 36.7692 70.2499 36.4497 70.5368 36.0216C70.8302 35.5871 70.9771 35.0376 70.9771 34.373Z" fill="#F7F9FC"/>
<path d="M52.634 38.7434V24.4624H57.6262C58.6145 24.4624 59.4307 24.6349 60.0746 24.9799C60.7184 25.3186 61.1967 25.7755 61.5092 26.3505C61.828 26.9256 61.9871 27.5614 61.9871 28.2579C61.9871 28.8713 61.879 29.3793 61.6621 29.7818C61.4452 30.178 61.1617 30.4943 60.8109 30.7307C60.4604 30.9607 60.081 31.1333 59.6727 31.2483V31.3825C60.113 31.408 60.5529 31.5614 60.9928 31.8426C61.4327 32.1237 61.7991 32.523 62.0925 33.0406C62.392 33.5582 62.5419 34.194 62.5419 34.948C62.5419 35.6636 62.3794 36.309 62.0541 36.8841C61.7291 37.4528 61.2158 37.9064 60.5145 38.245C59.8196 38.5775 58.9078 38.7434 57.7792 38.7434H52.634ZM54.3556 37.2099H57.7792C58.9078 37.2099 59.7081 36.9895 60.1796 36.5486C60.6579 36.1077 60.8969 35.5742 60.8969 34.948C60.8969 34.4624 60.7728 34.0151 60.524 33.6061C60.2819 33.1972 59.9341 32.8681 59.4817 32.6189C59.0289 32.3697 58.4934 32.2451 57.8751 32.2451H54.3556V37.2099ZM54.3556 30.7499H57.5688C58.0855 30.7499 58.554 30.6476 58.9748 30.4432C59.3957 30.2323 59.7271 29.9416 59.9695 29.571C60.218 29.194 60.3425 28.7563 60.3425 28.2579C60.3425 27.6317 60.1255 27.0981 59.6921 26.6572C59.2583 26.2163 58.5699 25.9959 57.6262 25.9959H54.3556V30.7499Z" fill="#F7F9FC"/>
<path d="M209.762 15.3284C208.87 15.3284 208.082 15.1016 207.4 14.6479C206.718 14.1943 206.185 13.5521 205.803 12.7214C205.42 11.8843 205.229 10.9003 205.229 9.76932C205.229 8.64472 205.42 7.67028 205.803 6.84601C206.192 6.01534 206.728 5.37635 207.409 4.92907C208.092 4.47539 208.882 4.24855 209.781 4.24855C210.483 4.24855 211.034 4.36357 211.436 4.59361C211.844 4.82362 212.156 5.08563 212.373 5.37955C212.59 5.66707 212.759 5.90352 212.88 6.08879H213.014V0.817238H214.64V15.0984H213.071V13.4498H212.88C212.759 13.6415 212.587 13.8875 212.364 14.1878C212.14 14.4818 211.822 14.7469 211.407 14.9834C210.999 15.2134 210.451 15.3284 209.762 15.3284ZM209.973 13.8524C210.636 13.8524 211.193 13.6799 211.646 13.3348C212.099 12.9834 212.443 12.501 212.679 11.8875C212.915 11.2677 213.033 10.5553 213.033 9.75014C213.033 8.94502 212.918 8.24215 212.689 7.64152C212.459 7.03449 212.115 6.56486 211.656 6.23257C211.203 5.89391 210.642 5.72458 209.973 5.72458C209.284 5.72458 208.71 5.90348 208.251 6.26133C207.792 6.61917 207.448 7.10157 207.218 7.7086C206.989 8.31564 206.874 8.99616 206.874 9.75014C206.874 10.5105 206.989 11.2006 207.218 11.8204C207.454 12.4402 207.802 12.9355 208.261 13.3061C208.72 13.6703 209.29 13.8524 209.973 13.8524Z" fill="#F7F9FC"/>
<path d="M196.813 8.65689V15.0978H195.187V4.3821H196.755V6.06899H196.908C197.157 5.51947 197.537 5.0786 198.047 4.74631C198.556 4.41406 199.216 4.24793 200.026 4.24793C200.747 4.24793 201.378 4.39488 201.92 4.6888C202.462 4.98276 202.882 5.43004 203.182 6.03067C203.488 6.62492 203.641 7.3789 203.641 8.29264V15.0978H202.015V8.40766C202.015 7.57062 201.796 6.91565 201.356 6.44282C200.916 5.96358 200.316 5.72397 199.558 5.72397C199.035 5.72397 198.566 5.83899 198.152 6.06899C197.737 6.29904 197.409 6.63129 197.167 7.06583C196.931 7.50033 196.813 8.03067 196.813 8.65689Z" fill="#F7F9FC"/>
<path d="M188.187 15.347C187.511 15.347 186.896 15.2192 186.341 14.9636C185.786 14.7016 185.346 14.3246 185.022 13.8326C184.696 13.3406 184.534 12.7463 184.534 12.0499C184.534 11.4364 184.655 10.9412 184.897 10.5642C185.139 10.1808 185.461 9.88053 185.863 9.66326C186.271 9.43962 186.717 9.27349 187.202 9.16484C187.693 9.05622 188.187 8.96996 188.684 8.90608C189.334 8.82301 189.86 8.75909 190.262 8.71436C190.67 8.66966 190.967 8.59297 191.152 8.48435C191.343 8.37574 191.438 8.19043 191.438 7.92842V7.87091C191.438 7.18722 191.25 6.65688 190.874 6.27986C190.505 5.8965 189.94 5.70478 189.181 5.70478C188.404 5.70478 187.792 5.87732 187.345 6.22235C186.899 6.56101 186.587 6.92526 186.408 7.31502L184.84 6.75909C185.12 6.10736 185.493 5.59937 185.959 5.23516C186.431 4.87091 186.941 4.61535 187.489 4.46837C188.043 4.32139 188.589 4.24793 189.124 4.24793C189.468 4.24793 189.864 4.28946 190.31 4.37253C190.757 4.44918 191.19 4.61535 191.611 4.87091C192.038 5.12014 192.389 5.50033 192.663 6.01148C192.943 6.51631 193.083 7.19359 193.083 8.04345V15.0978H191.438V13.6409H191.362C191.253 13.8709 191.069 14.1201 190.808 14.3885C190.546 14.6505 190.198 14.8773 189.765 15.069C189.338 15.2543 188.812 15.347 188.187 15.347ZM188.436 13.8709C189.086 13.8709 189.634 13.7431 190.081 13.4875C190.527 13.232 190.865 12.9029 191.094 12.5003C191.324 12.0914 191.438 11.6665 191.438 11.2256V9.71119C191.368 9.79426 191.215 9.87091 190.98 9.9412C190.75 10.0051 190.482 10.0626 190.176 10.1137C189.876 10.1648 189.583 10.2096 189.296 10.2479C189.009 10.2799 188.78 10.3054 188.608 10.3246C188.181 10.3821 187.782 10.4747 187.412 10.6025C187.043 10.724 186.743 10.9061 186.513 11.1489C186.29 11.3917 186.179 11.724 186.179 12.1457C186.179 12.7144 186.389 13.1457 186.81 13.4396C187.237 13.7271 187.779 13.8709 188.436 13.8709Z" fill="#F7F9FC"/>
<path d="M174.492 15.3278C173.466 15.3278 172.576 15.0978 171.824 14.6377C171.078 14.1776 170.504 13.5355 170.103 12.7112C169.701 11.8805 169.5 10.9189 169.5 9.82618C169.5 8.72717 169.698 7.75909 170.093 6.92205C170.488 6.08497 171.043 5.43004 171.757 4.95717C172.478 4.48435 173.319 4.24793 174.282 4.24793C174.837 4.24793 175.388 4.34057 175.936 4.52588C176.485 4.71119 176.982 5.01148 177.428 5.42684C177.881 5.84215 178.241 6.39168 178.509 7.0754C178.777 7.75909 178.911 8.59937 178.911 9.59617V10.3054H170.667V8.88689H178.021L177.266 9.42364C177.266 8.70799 177.154 8.0722 176.931 7.51631C176.708 6.96038 176.373 6.52268 175.927 6.2032C175.487 5.88372 174.939 5.72397 174.282 5.72397C173.625 5.72397 173.061 5.88689 172.589 6.21277C172.124 6.53225 171.766 6.95081 171.518 7.46837C171.269 7.98593 171.145 8.54186 171.145 9.13612V10.0754C171.145 10.8869 171.285 11.5738 171.566 12.1361C171.846 12.6984 172.238 13.1265 172.742 13.4204C173.246 13.708 173.829 13.8518 174.492 13.8518C174.92 13.8518 175.308 13.7911 175.659 13.6696C176.01 13.5419 176.313 13.3534 176.568 13.1042C176.823 12.8486 177.017 12.5355 177.151 12.1648L178.739 12.6249C178.573 13.1617 178.292 13.6345 177.897 14.0435C177.508 14.446 177.023 14.7623 176.443 14.9924C175.863 15.216 175.213 15.3278 174.492 15.3278Z" fill="#F7F9FC"/>
<path d="M164.259 15.3278C163.264 15.3278 162.404 15.0914 161.677 14.6185C160.957 14.1393 160.399 13.4844 160.003 12.6537C159.614 11.823 159.42 10.8741 159.42 9.80703C159.42 8.71436 159.621 7.75272 160.023 6.92205C160.424 6.08497 160.985 5.43004 161.706 4.95717C162.433 4.48435 163.277 4.24793 164.24 4.24793C164.992 4.24793 165.668 4.38851 166.268 4.66966C166.873 4.9444 167.367 5.3342 167.75 5.83899C168.139 6.34377 168.378 6.93162 168.467 7.60254H166.822C166.739 7.27669 166.59 6.96995 166.373 6.68243C166.156 6.39488 165.869 6.16487 165.512 5.99234C165.161 5.81344 164.744 5.72397 164.259 5.72397C163.622 5.72397 163.064 5.89009 162.586 6.22234C162.107 6.55464 161.734 7.0243 161.467 7.63129C161.199 8.23196 161.065 8.93803 161.065 9.74952C161.065 10.5738 161.196 11.2958 161.457 11.9157C161.718 12.5291 162.088 13.0051 162.567 13.3438C163.051 13.6824 163.615 13.8518 164.259 13.8518C164.903 13.8518 165.455 13.6856 165.914 13.3534C166.373 13.0147 166.676 12.5546 166.822 11.9732H168.467C168.378 12.6057 168.148 13.1745 167.779 13.6792C167.415 14.184 166.934 14.5866 166.335 14.8869C165.742 15.1808 165.05 15.3278 164.259 15.3278Z" fill="#F7F9FC"/>
<path d="M151.004 8.65689V15.0978H149.379V4.3821H150.947V6.06899H151.1C151.349 5.51947 151.728 5.0786 152.238 4.74631C152.748 4.41406 153.408 4.24793 154.217 4.24793C154.938 4.24793 155.569 4.39488 156.111 4.6888C156.653 4.98276 157.074 5.43004 157.374 6.03067C157.68 6.62492 157.833 7.3789 157.833 8.29264V15.0978H156.207V8.40766C156.207 7.57062 155.987 6.91565 155.547 6.44282C155.107 5.96358 154.508 5.72397 153.749 5.72397C153.226 5.72397 152.758 5.83899 152.343 6.06899C151.929 6.29904 151.601 6.63129 151.358 7.06583C151.122 7.50033 151.004 8.03067 151.004 8.65689Z" fill="#F7F9FC"/>
<path d="M142.377 15.347C141.702 15.347 141.086 15.2192 140.532 14.9636C139.977 14.7016 139.537 14.3246 139.212 13.8326C138.887 13.3406 138.724 12.7463 138.724 12.0499C138.724 11.4364 138.845 10.9412 139.088 10.5642C139.33 10.1808 139.652 9.88053 140.054 9.66326C140.461 9.43962 140.908 9.27349 141.392 9.16484C141.884 9.05622 142.377 8.96996 142.875 8.90608C143.525 8.82301 144.051 8.75909 144.453 8.71436C144.861 8.66966 145.157 8.59297 145.342 8.48435C145.534 8.37574 145.629 8.19043 145.629 7.92842V7.87091C145.629 7.18722 145.441 6.65688 145.065 6.27986C144.695 5.8965 144.131 5.70478 143.372 5.70478C142.594 5.70478 141.982 5.87732 141.536 6.22235C141.09 6.56101 140.777 6.92526 140.599 7.31502L139.03 6.75909C139.311 6.10736 139.684 5.59937 140.149 5.23516C140.621 4.87091 141.131 4.61535 141.679 4.46837C142.234 4.32139 142.779 4.24793 143.315 4.24793C143.659 4.24793 144.054 4.28946 144.5 4.37253C144.947 4.44918 145.38 4.61535 145.801 4.87091C146.228 5.12014 146.579 5.50033 146.853 6.01148C147.134 6.51631 147.274 7.19359 147.274 8.04345V15.0978H145.629V13.6409H145.553C145.444 13.8709 145.259 14.1201 144.998 14.3885C144.736 14.6505 144.389 14.8773 143.956 15.069C143.528 15.2543 143.002 15.347 142.377 15.347ZM142.626 13.8709C143.276 13.8709 143.825 13.7431 144.271 13.4875C144.717 13.232 145.055 12.9029 145.285 12.5003C145.514 12.0914 145.629 11.6665 145.629 11.2256V9.71119C145.559 9.79426 145.406 9.87091 145.17 9.9412C144.94 10.0051 144.673 10.0626 144.367 10.1137C144.067 10.1648 143.774 10.2096 143.487 10.2479C143.2 10.2799 142.97 10.3054 142.798 10.3246C142.371 10.3821 141.973 10.4747 141.603 10.6025C141.233 10.724 140.933 10.9061 140.704 11.1489C140.481 11.3917 140.369 11.724 140.369 12.1457C140.369 12.7144 140.579 13.1457 141 13.4396C141.428 13.7271 141.97 13.8709 142.626 13.8709Z" fill="#F7F9FC"/>
<path d="M130.309 8.65689V15.0978H128.683V4.3821H130.251V6.06899H130.404C130.653 5.51947 131.033 5.0786 131.542 4.74631C132.052 4.41406 132.712 4.24793 133.522 4.24793C134.243 4.24793 134.874 4.39488 135.415 4.6888C135.958 4.98276 136.378 5.43004 136.678 6.03067C136.984 6.62492 137.137 7.3789 137.137 8.29264V15.0978H135.511V8.40766C135.511 7.57062 135.291 6.91565 134.852 6.44282C134.412 5.96358 133.812 5.72397 133.054 5.72397C132.531 5.72397 132.062 5.83899 131.647 6.06899C131.233 6.29904 130.905 6.63129 130.663 7.06583C130.427 7.50033 130.309 8.03067 130.309 8.65689Z" fill="#F7F9FC"/>
<path d="M124.953 15.0981V4.38246H126.579V15.0981H124.953ZM125.775 2.59969C125.456 2.59969 125.182 2.49107 124.953 2.27382C124.724 2.05656 124.609 1.79458 124.609 1.48787C124.609 1.18117 124.724 0.919184 124.953 0.70193C125.182 0.48468 125.456 0.376053 125.775 0.376053C126.094 0.376053 126.368 0.48468 126.598 0.70193C126.828 0.919184 126.942 1.18117 126.942 1.48787C126.942 1.79458 126.828 2.05656 126.598 2.27382C126.368 2.49107 126.094 2.59969 125.775 2.59969Z" fill="#F7F9FC"/>
<path d="M114.587 15.0984V0.817238H123.136V2.35079H116.308V7.33482H122.486V8.86836H116.308V15.0984H114.587Z" fill="#F7F9FC"/>
<path d="M104.028 15.3278C103.034 15.3278 102.173 15.0914 101.446 14.6185C100.726 14.1393 100.168 13.4844 99.7726 12.6537C99.3837 11.823 99.1892 10.8741 99.1892 9.80703C99.1892 8.71436 99.3898 7.75272 99.7916 6.92205C100.193 6.08497 100.754 5.43004 101.475 4.95717C102.201 4.48435 103.046 4.24793 104.009 4.24793C104.761 4.24793 105.437 4.38851 106.036 4.66966C106.642 4.9444 107.136 5.3342 107.519 5.83899C107.908 6.34377 108.147 6.93162 108.236 7.60254H106.591C106.508 7.27669 106.358 6.96995 106.142 6.68243C105.925 6.39488 105.638 6.16487 105.281 5.99234C104.93 5.81344 104.513 5.72397 104.028 5.72397C103.391 5.72397 102.833 5.89009 102.354 6.22234C101.877 6.55464 101.504 7.0243 101.236 7.63129C100.968 8.23196 100.834 8.93803 100.834 9.74952C100.834 10.5738 100.965 11.2958 101.226 11.9157C101.488 12.5291 101.857 13.0051 102.335 13.3438C102.82 13.6824 103.384 13.8518 104.028 13.8518C104.672 13.8518 105.224 13.6856 105.683 13.3534C106.142 13.0147 106.444 12.5546 106.591 11.9732H108.236C108.147 12.6057 107.917 13.1745 107.548 13.6792C107.184 14.184 106.703 14.5866 106.103 14.8869C105.511 15.1808 104.819 15.3278 104.028 15.3278Z" fill="#F7F9FC"/>
<path d="M95.9758 15.0981V4.38246H97.6018V15.0981H95.9758ZM96.7985 2.59969C96.4797 2.59969 96.2053 2.49107 95.9758 2.27382C95.7464 2.05656 95.6318 1.79458 95.6318 1.48787C95.6318 1.18117 95.7464 0.919184 95.9758 0.70193C96.2053 0.48468 96.4797 0.376053 96.7985 0.376053C97.117 0.376053 97.3914 0.48468 97.6209 0.70193C97.8503 0.919184 97.9652 1.18117 97.9652 1.48787C97.9652 1.79458 97.8503 2.05656 97.6209 2.27382C97.3914 2.49107 97.117 2.59969 96.7985 2.59969Z" fill="#F7F9FC"/>
<path d="M79.8523 15.0978V4.3821H81.4205V6.06899H81.5738C81.7968 5.49392 82.1572 5.04664 82.6541 4.72717C83.1515 4.40765 83.7478 4.24793 84.4426 4.24793C85.144 4.24793 85.7273 4.40765 86.1927 4.72717C86.6646 5.04664 87.031 5.49392 87.2924 6.06899H87.4074C87.6878 5.5131 88.0992 5.0722 88.641 4.74631C89.1894 4.41406 89.8428 4.24793 90.6015 4.24793C91.5578 4.24793 92.3421 4.54823 92.9544 5.14889C93.5662 5.74315 93.8722 6.66966 93.8722 7.92842V15.0978H92.2272V7.92842C92.2272 7.13612 92.0106 6.57062 91.5772 6.23196C91.1434 5.8933 90.6335 5.72397 90.0467 5.72397C89.3009 5.72397 88.7206 5.95401 88.3062 6.41406C87.8982 6.86775 87.6943 7.43641 87.6943 8.12014V15.0978H86.0112V7.75593C86.0112 7.14889 85.8167 6.66005 85.4278 6.28947C85.0389 5.91244 84.5321 5.72397 83.9072 5.72397C83.4799 5.72397 83.0815 5.83899 82.7116 6.06899C82.3417 6.29904 82.0422 6.61535 81.8128 7.01789C81.5894 7.42043 81.4779 7.88369 81.4779 8.40766V15.0978H79.8523Z" fill="#F7F9FC"/>
<path d="M72.8511 15.347C72.1753 15.347 71.56 15.2192 71.0055 14.9636C70.4507 14.7016 70.0108 14.3246 69.6855 13.8326C69.3605 13.3406 69.198 12.7463 69.198 12.0499C69.198 11.4364 69.319 10.9412 69.5614 10.5642C69.8034 10.1808 70.1257 9.88053 70.5272 9.66326C70.9351 9.43962 71.3815 9.27349 71.8663 9.16484C72.3572 9.05622 72.8511 8.96996 73.3485 8.90608C73.9988 8.82301 74.5247 8.75909 74.9265 8.71436C75.3344 8.66966 75.6309 8.59297 75.8158 8.48435C76.0072 8.37574 76.1027 8.19043 76.1027 7.92842V7.87091C76.1027 7.18722 75.9148 6.65688 75.5384 6.27986C75.1685 5.8965 74.6046 5.70478 73.8458 5.70478C73.068 5.70478 72.4557 5.87732 72.0094 6.22235C71.5634 6.56101 71.251 6.92526 71.0725 7.31502L69.5039 6.75909C69.7844 6.10736 70.1573 5.59937 70.6227 5.23516C71.0946 4.87091 71.6049 4.61535 72.1528 4.46837C72.7076 4.32139 73.2529 4.24793 73.7883 4.24793C74.1327 4.24793 74.5281 4.28946 74.9741 4.37253C75.4204 4.44918 75.8542 4.61535 76.2747 4.87091C76.7021 5.12014 77.0525 5.50033 77.3269 6.01148C77.6074 6.51631 77.7478 7.19359 77.7478 8.04345V15.0978H76.1027V13.6409H76.0262C75.9178 13.8709 75.7329 14.1201 75.4714 14.3885C75.21 14.6505 74.8626 14.8773 74.4292 15.069C74.0018 15.2543 73.4759 15.347 72.8511 15.347ZM73.1 13.8709C73.7499 13.8709 74.2983 13.7431 74.7446 13.4875C75.191 13.232 75.5289 12.9029 75.7584 12.5003C75.9878 12.0914 76.1027 11.6665 76.1027 11.2256V9.71119C76.0327 9.79426 75.8797 9.87091 75.6438 9.9412C75.414 10.0051 75.1465 10.0626 74.8405 10.1137C74.5407 10.1648 74.2473 10.2096 73.9603 10.2479C73.6734 10.2799 73.444 10.3054 73.272 10.3246C72.8446 10.3821 72.4462 10.4747 72.0763 10.6025C71.7068 10.724 71.407 10.9061 71.1775 11.1489C70.9545 11.3917 70.8427 11.724 70.8427 12.1457C70.8427 12.7144 71.0531 13.1457 71.474 13.4396C71.9013 13.7271 72.4432 13.8709 73.1 13.8709Z" fill="#F7F9FC"/>
<path d="M67.6104 0.817238V15.0984H65.9844V0.817238H67.6104Z" fill="#F7F9FC"/>
<path d="M64.2249 6.79746L62.7522 7.2C62.6118 6.83579 62.3698 6.49072 62.0254 6.16487C61.6875 5.83258 61.1582 5.66645 60.4379 5.66645C59.7875 5.66645 59.2457 5.8198 58.8122 6.12651C58.3784 6.42684 58.1619 6.80383 58.1619 7.25751C58.1619 7.66646 58.3084 7.99234 58.6018 8.23516C58.9013 8.47794 59.3667 8.67603 59.998 8.82938L61.5855 9.21278C62.5353 9.44282 63.2431 9.79746 63.7085 10.2767C64.1804 10.7559 64.4163 11.3661 64.4163 12.1073C64.4163 12.7208 64.2409 13.2703 63.8904 13.7559C63.5396 14.2415 63.0517 14.6249 62.4273 14.9061C61.8024 15.1872 61.0756 15.3278 60.2465 15.3278C59.1562 15.3278 58.2544 15.0882 57.5401 14.609C56.8323 14.1297 56.3829 13.4364 56.1919 12.5291L57.741 12.1457C57.8875 12.7208 58.168 13.1521 58.5824 13.4396C59.0033 13.7271 59.5516 13.8709 60.2274 13.8709C60.9862 13.8709 61.592 13.708 62.0445 13.3821C62.5038 13.0498 62.7332 12.6569 62.7332 12.2032C62.7332 11.4492 62.2039 10.9444 61.1456 10.6888L59.3667 10.2671C58.3849 10.0307 57.6645 9.66966 57.2052 9.18402C56.7463 8.69842 56.5169 8.08818 56.5169 7.35335C56.5169 6.74632 56.6858 6.20957 57.0237 5.74311C57.3681 5.27669 57.8365 4.91248 58.4294 4.65047C59.0227 4.3821 59.692 4.24793 60.4379 4.24793C61.5026 4.24793 62.3348 4.48435 62.9341 4.95717C63.5396 5.42363 63.9699 6.03707 64.2249 6.79746Z" fill="#F7F9FC"/>
<path d="M54.3556 0.817238V15.0984H52.634V0.817238H54.3556Z" fill="#F7F9FC"/>
<path d="M31.6876 0H23.7656V7.93949H31.6876V0Z" fill="#F7F9FC"/>
<path d="M31.6876 15.8784H23.7656V23.8179H31.6876V15.8784Z" fill="#F7F9FC"/>
<path d="M31.6876 31.7576H23.7656V39.697H31.6876V31.7576Z" fill="#F7F9FC"/>
<path d="M15.8443 0H7.92236V7.93949H15.8443V0Z" fill="#F7F9FC"/>
<path d="M15.8443 15.8784H7.92236V23.8179H15.8443V15.8784Z" fill="#F7F9FC"/>
<path d="M15.8443 31.7576H7.92236V39.697H15.8443V31.7576Z" fill="#F7F9FC"/>
<path d="M23.7659 7.93864H15.844V15.8781H23.7659V7.93864Z" fill="#F7F9FC"/>
<path d="M23.7659 23.8181H15.844V31.7576H23.7659V23.8181Z" fill="#F7F9FC"/>
<path d="M39.6097 7.93864H31.6877V15.8781H39.6097V7.93864Z" fill="#F7F9FC"/>
<path d="M39.6097 23.8181H31.6877V31.7576H39.6097V23.8181Z" fill="#F7F9FC"/>
<path d="M7.92218 7.93864H0.000244141V15.8781H7.92218V7.93864Z" fill="#F7F9FC"/>
<path d="M7.92218 23.8181H0.000244141V31.7576H7.92218V23.8181Z" fill="#F7F9FC"/>
</g>
<defs>
<clipPath id="clip0_6369_755">
<rect width="215" height="40" fill="white"/>
</clipPath>
</defs>
</svg>
