<svg width="30" height="30" viewBox="0 0 30 30" fill="none" xmlns="http://www.w3.org/2000/svg">
<path d="M12.5 28.75C12.5 29.0815 12.3683 29.3995 12.1339 29.6339C11.8995 29.8683 11.5815 30 11.25 30H1.25C0.918479 30 0.600537 29.8683 0.366117 29.6339C0.131696 29.3995 0 29.0815 0 28.75V1.25C0 0.918479 0.131696 0.600537 0.366117 0.366117C0.600537 0.131696 0.918479 0 1.25 0H11.25C11.5815 0 11.8995 0.131696 12.1339 0.366117C12.3683 0.600537 12.5 0.918479 12.5 1.25C12.5 1.58152 12.3683 1.89946 12.1339 2.13388C11.8995 2.3683 11.5815 2.5 11.25 2.5H2.5V27.5H11.25C11.5815 27.5 11.8995 27.6317 12.1339 27.8661C12.3683 28.1005 12.5 28.4185 12.5 28.75ZM29.6344 14.1156L23.3844 7.86562C23.1498 7.63107 22.8317 7.49931 22.5 7.49931C22.1683 7.49931 21.8502 7.63107 21.6156 7.86562C21.3811 8.10018 21.2493 8.4183 21.2493 8.75C21.2493 9.0817 21.3811 9.39982 21.6156 9.63438L25.7328 13.75H11.25C10.9185 13.75 10.6005 13.8817 10.3661 14.1161C10.1317 14.3505 10 14.6685 10 15C10 15.3315 10.1317 15.6495 10.3661 15.8839C10.6005 16.1183 10.9185 16.25 11.25 16.25H25.7328L21.6156 20.3656C21.3811 20.6002 21.2493 20.9183 21.2493 21.25C21.2493 21.5817 21.3811 21.8998 21.6156 22.1344C21.8502 22.3689 22.1683 22.5007 22.5 22.5007C22.8317 22.5007 23.1498 22.3689 23.3844 22.1344L29.6344 15.8844C29.7506 15.7683 29.8428 15.6304 29.9057 15.4787C29.9686 15.3269 30.001 15.1643 30.001 15C30.001 14.8357 29.9686 14.6731 29.9057 14.5213C29.8428 14.3696 29.7506 14.2317 29.6344 14.1156Z" fill="#F7F9FC" fill-opacity="0.75"/>
</svg>
