<svg width="64" height="64" viewBox="0 0 64 64" fill="none" xmlns="http://www.w3.org/2000/svg">
<path d="M20 14V6C20 5.46957 20.2107 4.96086 20.5858 4.58579C20.9609 4.21071 21.4696 4 22 4C22.5304 4 23.0391 4.21071 23.4142 4.58579C23.7893 4.96086 24 5.46957 24 6V14C24 14.5304 23.7893 15.0391 23.4142 15.4142C23.0391 15.7893 22.5304 16 22 16C21.4696 16 20.9609 15.7893 20.5858 15.4142C20.2107 15.0391 20 14.5304 20 14ZM30 16C30.5304 16 31.0391 15.7893 31.4142 15.4142C31.7893 15.0391 32 14.5304 32 14V6C32 5.46957 31.7893 4.96086 31.4142 4.58579C31.0391 4.21071 30.5304 4 30 4C29.4696 4 28.9609 4.21071 28.5858 4.58579C28.2107 4.96086 28 5.46957 28 6V14C28 14.5304 28.2107 15.0391 28.5858 15.4142C28.9609 15.7893 29.4696 16 30 16ZM38 16C38.5304 16 39.0391 15.7893 39.4142 15.4142C39.7893 15.0391 40 14.5304 40 14V6C40 5.46957 39.7893 4.96086 39.4142 4.58579C39.0391 4.21071 38.5304 4 38 4C37.4696 4 36.9609 4.21071 36.5858 4.58579C36.2107 4.96086 36 5.46957 36 6V14C36 14.5304 36.2107 15.0391 36.5858 15.4142C36.9609 15.7893 37.4696 16 38 16ZM62 30V32C61.9992 34.5439 61.029 36.9918 59.2868 38.8455C57.5446 40.6991 55.1614 41.8191 52.6225 41.9775C51.2583 45.8364 48.9355 49.2852 45.8725 52H52C52.5304 52 53.0391 52.2107 53.4142 52.5858C53.7893 52.9609 54 53.4696 54 54C54 54.5304 53.7893 55.0391 53.4142 55.4142C53.0391 55.7893 52.5304 56 52 56H8C7.46957 56 6.96086 55.7893 6.58579 55.4142C6.21071 55.0391 6 54.5304 6 54C6 53.4696 6.21071 52.9609 6.58579 52.5858C6.96086 52.2107 7.46957 52 8 52H14.135C11.5833 49.7456 9.53874 46.9755 8.13645 43.8727C6.73415 40.7699 6.00598 37.405 6 34V22C6 21.4696 6.21071 20.9609 6.58579 20.5858C6.96086 20.2107 7.46957 20 8 20H52C54.6522 20 57.1957 21.0536 59.0711 22.9289C60.9464 24.8043 62 27.3478 62 30ZM50 24H10V34C10.0077 37.7552 11.0689 41.4329 13.063 44.6149C15.0571 47.7969 17.904 50.3556 21.28 52H38.72C42.096 50.3556 44.9429 47.7969 46.937 44.6149C48.9311 41.4329 49.9923 37.7552 50 34V24ZM58 30C57.9996 28.7596 57.6148 27.5497 56.8984 26.537C56.1821 25.5243 55.1695 24.7585 54 24.345V34C53.9985 35.2559 53.8982 36.5098 53.7 37.75C54.9409 37.3834 56.0301 36.6254 56.805 35.5892C57.5799 34.5529 57.9991 33.2939 58 32V30Z" fill="url(#paint0_linear_6480_1432)"/>
<defs>
<linearGradient id="paint0_linear_6480_1432" x1="6" y1="56" x2="62.5677" y2="55.3749" gradientUnits="userSpaceOnUse">
<stop stop-color="#2F4FA3"/>
<stop offset="1" stop-color="#5FE3E3"/>
</linearGradient>
</defs>
</svg>
