<svg width="52" height="50" viewBox="0 0 52 50" fill="none" xmlns="http://www.w3.org/2000/svg">
<path d="M48 12H40V4C40 2.93913 39.5786 1.92172 38.8284 1.17157C38.0783 0.421427 37.0609 0 36 0H4C2.93913 0 1.92172 0.421427 1.17157 1.17157C0.421427 1.92172 0 2.93913 0 4V36C0.00117428 36.3763 0.108468 36.7446 0.309555 37.0626C0.510642 37.3806 0.797365 37.6355 1.13678 37.7979C1.4762 37.9603 1.85455 38.0236 2.22836 37.9807C2.60217 37.9377 2.95628 37.7902 3.25 37.555L12 30.5V38C12 39.0609 12.4214 40.0783 13.1716 40.8284C13.9217 41.5786 14.9391 42 16 42H39.3975L48.75 49.555C49.1039 49.8413 49.5448 49.9982 50 50C50.5304 50 51.0391 49.7893 51.4142 49.4142C51.7893 49.0391 52 48.5304 52 48V16C52 14.9391 51.5786 13.9217 50.8284 13.1716C50.0783 12.4214 49.0609 12 48 12ZM10.6375 26.445L4 31.8125V4H36V26H11.895C11.4373 26.0001 10.9934 26.1571 10.6375 26.445ZM48 43.8125L41.3625 38.445C41.0086 38.1587 40.5677 38.0018 40.1125 38H16V30H36C37.0609 30 38.0783 29.5786 38.8284 28.8284C39.5786 28.0783 40 27.0609 40 26V16H48V43.8125Z" fill="url(#paint0_linear_6480_1276)"/>
<defs>
<linearGradient id="paint0_linear_6480_1276" x1="-3.00863e-08" y1="50" x2="52.5276" y2="49.4395" gradientUnits="userSpaceOnUse">
<stop stop-color="#2F4FA3"/>
<stop offset="1" stop-color="#5FE3E3"/>
</linearGradient>
</defs>
</svg>
