<svg width="56" height="54" viewBox="0 0 56 54" fill="none" xmlns="http://www.w3.org/2000/svg">
<path d="M54 12.0025H36C34.4475 12.0025 32.9164 12.364 31.5279 13.0582C30.1393 13.7525 28.9315 14.7605 28 16.0025C27.0685 14.7605 25.8607 13.7525 24.4721 13.0582C23.0836 12.364 21.5525 12.0025 20 12.0025H2C1.46957 12.0025 0.960859 12.2132 0.585786 12.5883C0.210714 12.9634 0 13.4721 0 14.0025V44.0025C0 44.5329 0.210714 45.0416 0.585786 45.4167C0.960859 45.7918 1.46957 46.0025 2 46.0025H20C21.5913 46.0025 23.1174 46.6346 24.2426 47.7599C25.3679 48.8851 26 50.4112 26 52.0025C26 52.5329 26.2107 53.0416 26.5858 53.4167C26.9609 53.7918 27.4696 54.0025 28 54.0025C28.5304 54.0025 29.0391 53.7918 29.4142 53.4167C29.7893 53.0416 30 52.5329 30 52.0025C30 50.4112 30.6321 48.8851 31.7574 47.7599C32.8826 46.6346 34.4087 46.0025 36 46.0025H54C54.5304 46.0025 55.0391 45.7918 55.4142 45.4167C55.7893 45.0416 56 44.5329 56 44.0025V14.0025C56 13.4721 55.7893 12.9634 55.4142 12.5883C55.0391 12.2132 54.5304 12.0025 54 12.0025ZM20 42.0025H4V16.0025H20C21.5913 16.0025 23.1174 16.6346 24.2426 17.7599C25.3679 18.8851 26 20.4112 26 22.0025V44.0025C24.2707 42.7012 22.1643 41.9991 20 42.0025ZM52 42.0025H36C33.8357 41.9991 31.7293 42.7012 30 44.0025V22.0025C30 20.4112 30.6321 18.8851 31.7574 17.7599C32.8826 16.6346 34.4087 16.0025 36 16.0025H52V42.0025ZM18.4 4.8C19.5178 3.30965 20.9672 2.10001 22.6334 1.26687C24.2997 0.433741 26.1371 0 28 0C29.8629 0 31.7003 0.433741 33.3666 1.26687C35.0328 2.10001 36.4822 3.30965 37.6 4.8C37.9189 5.22401 38.0563 5.75735 37.982 6.28269C37.9077 6.80803 37.6278 7.28233 37.2038 7.60125C36.7797 7.92017 36.2464 8.05759 35.7211 7.98328C35.1957 7.90897 34.7214 7.62901 34.4025 7.205C33.6574 6.21048 32.6909 5.40321 31.5796 4.84718C30.4682 4.29115 29.2427 4.00166 28 4.00166C26.7573 4.00166 25.5318 4.29115 24.4204 4.84718C23.3091 5.40321 22.3426 6.21048 21.5975 7.205C21.4396 7.41495 21.2419 7.59174 21.0156 7.72528C20.7894 7.85882 20.5391 7.94649 20.2789 7.98328C20.0188 8.02008 19.754 8.00528 19.4996 7.93973C19.2452 7.87418 19.0062 7.75916 18.7962 7.60125C18.5863 7.44334 18.4095 7.24561 18.276 7.01937C18.1424 6.79314 18.0548 6.54281 18.018 6.28269C17.9812 6.02257 17.996 5.75775 18.0615 5.50335C18.1271 5.24895 18.2421 5.00995 18.4 4.8Z" fill="url(#paint0_linear_6480_733)"/>
<defs>
<linearGradient id="paint0_linear_6480_733" x1="-3.24006e-08" y1="54.0025" x2="56.5682" y2="53.4006" gradientUnits="userSpaceOnUse">
<stop stop-color="#2F4FA3"/>
<stop offset="1" stop-color="#5FE3E3"/>
</linearGradient>
</defs>
</svg>
