<svg width="58" height="45" viewBox="0 0 58 45" fill="none" xmlns="http://www.w3.org/2000/svg">
<path d="M31.9869 31.43C35.1221 29.4773 37.536 26.5565 38.8635 23.1097C40.191 19.6628 40.3597 15.8774 39.3442 12.3261C38.3287 8.77485 36.1842 5.65091 33.2352 3.42694C30.2861 1.20298 26.693 0 22.9994 0C19.3057 0 15.7126 1.20298 12.7635 3.42694C9.81447 5.65091 7.66998 8.77485 6.65447 12.3261C5.63897 15.8774 5.80772 19.6628 7.13519 23.1097C8.46265 26.5565 10.8766 29.4773 14.0119 31.43C8.84935 33.12 4.20435 36.2775 0.469351 40.7225C0.127885 41.1286 -0.0382683 41.6537 0.00744365 42.1824C0.0531556 42.711 0.306988 43.1998 0.713101 43.5412C1.11921 43.8827 1.64434 44.0489 2.17296 44.0032C2.70158 43.9574 3.19038 43.7036 3.53185 43.2975C8.54935 37.3075 15.4644 34.01 22.9869 34.01C30.5093 34.01 37.4244 37.3075 42.4569 43.2975C42.7983 43.7036 43.2871 43.9574 43.8157 44.0032C44.3444 44.0489 44.8695 43.8827 45.2756 43.5412C45.6817 43.1998 45.9355 42.711 45.9813 42.1824C46.027 41.6537 45.8608 41.1286 45.5194 40.7225C41.7819 36.2775 37.1369 33.12 31.9869 31.43ZM9.98685 17.01C9.98685 14.4388 10.7493 11.9254 12.1777 9.78759C13.6062 7.64975 15.6365 5.9835 18.012 4.99956C20.3874 4.01562 23.0013 3.75818 25.523 4.25979C28.0448 4.7614 30.3612 5.99953 32.1792 7.81761C33.9973 9.63569 35.2355 11.9521 35.7371 14.4738C36.2387 16.9956 35.9812 19.6094 34.9973 21.9849C34.0133 24.3603 32.3471 26.3906 30.2093 27.8191C28.0714 29.2476 25.558 30.01 22.9869 30.01C19.5403 30.006 16.236 28.6351 13.7988 26.198C11.3617 23.7609 9.99082 20.4566 9.98685 17.01ZM47.8269 6.41C49.2522 9.76218 49.9868 13.3674 49.9868 17.01C49.9868 20.6526 49.2522 24.2578 47.8269 27.61C47.673 27.9706 47.4165 28.278 47.0894 28.494C46.7623 28.71 46.3789 28.8251 45.9869 28.825C45.6558 28.8253 45.3298 28.7433 45.0382 28.5866C44.7466 28.4298 44.4985 28.2031 44.3161 27.9268C44.1338 27.6505 44.0228 27.3332 43.9933 27.0035C43.9637 26.6737 44.0165 26.3418 44.1469 26.0375C45.3611 23.1827 45.9869 20.1123 45.9869 17.01C45.9869 13.9077 45.3611 10.8373 44.1469 7.9825C43.9383 7.4945 43.9322 6.94365 44.1298 6.45113C44.3274 5.95862 44.7126 5.56477 45.2006 5.35625C45.6886 5.14772 46.2394 5.14159 46.732 5.33921C47.2245 5.53683 47.6183 5.922 47.8269 6.41ZM57.9869 17.01C57.9962 21.7502 57.0357 26.4423 55.1644 30.7975C54.9455 31.2695 54.5513 31.6376 54.0654 31.8237C53.5796 32.0099 53.0403 31.9993 52.5621 31.7944C52.0839 31.5895 51.7044 31.2062 51.5041 30.726C51.3038 30.2458 51.2985 29.7065 51.4893 29.2225C53.1373 25.3619 53.9869 21.2076 53.9869 17.01C53.9869 12.8124 53.1373 8.65813 51.4893 4.7975C51.3768 4.55475 51.3141 4.29188 51.3049 4.02446C51.2958 3.75704 51.3404 3.4905 51.4361 3.24063C51.5318 2.99076 51.6767 2.76264 51.8622 2.56977C52.0477 2.37691 52.27 2.22322 52.5159 2.11782C52.7619 2.01241 53.0265 1.95743 53.294 1.95613C53.5616 1.95483 53.8267 2.00724 54.0737 2.11024C54.3206 2.21325 54.5444 2.36477 54.7318 2.55582C54.9191 2.74687 55.0662 2.97357 55.1644 3.2225C57.0357 7.57772 57.9962 12.2698 57.9869 17.01Z" fill="url(#paint0_linear_6480_1427)"/>
<defs>
<linearGradient id="paint0_linear_6480_1427" x1="-3.35502e-08" y1="44.0106" x2="58.5712" y2="43.2188" gradientUnits="userSpaceOnUse">
<stop stop-color="#2F4FA3"/>
<stop offset="1" stop-color="#5FE3E3"/>
</linearGradient>
</defs>
</svg>
