<svg width="52" height="56" viewBox="0 0 52 56" fill="none" xmlns="http://www.w3.org/2000/svg">
<path d="M16 28V24C16 23.4696 16.2107 22.9609 16.5858 22.5858C16.9609 22.2107 17.4696 22 18 22C18.5304 22 19.0391 22.2107 19.4142 22.5858C19.7893 22.9609 20 23.4696 20 24V28C20 28.5304 19.7893 29.0391 19.4142 29.4142C19.0391 29.7893 18.5304 30 18 30C17.4696 30 16.9609 29.7893 16.5858 29.4142C16.2107 29.0391 16 28.5304 16 28ZM26 30C26.5304 30 27.0391 29.7893 27.4142 29.4142C27.7893 29.0391 28 28.5304 28 28V22C28 21.4696 27.7893 20.9609 27.4142 20.5858C27.0391 20.2107 26.5304 20 26 20C25.4696 20 24.9609 20.2107 24.5858 20.5858C24.2107 20.9609 24 21.4696 24 22V28C24 28.5304 24.2107 29.0391 24.5858 29.4142C24.9609 29.7893 25.4696 30 26 30ZM34 30C34.5304 30 35.0391 29.7893 35.4142 29.4142C35.7893 29.0391 36 28.5304 36 28V20C36 19.4696 35.7893 18.9609 35.4142 18.5858C35.0391 18.2107 34.5304 18 34 18C33.4696 18 32.9609 18.2107 32.5858 18.5858C32.2107 18.9609 32 19.4696 32 20V28C32 28.5304 32.2107 29.0391 32.5858 29.4142C32.9609 29.7893 33.4696 30 34 30ZM48 12V36H50C50.5304 36 51.0391 36.2107 51.4142 36.5858C51.7893 36.9609 52 37.4696 52 38C52 38.5304 51.7893 39.0391 51.4142 39.4142C51.0391 39.7893 50.5304 40 50 40H28V44.345C29.3344 44.8168 30.4591 45.7451 31.1753 46.966C31.8914 48.1868 32.1529 49.6215 31.9136 51.0165C31.6742 52.4115 30.9495 53.6769 29.8673 54.5892C28.7852 55.5015 27.4154 56.0019 26 56.0019C24.5846 56.0019 23.2148 55.5015 22.1327 54.5892C21.0505 53.6769 20.3258 52.4115 20.0864 51.0165C19.8471 49.6215 20.1086 48.1868 20.8247 46.966C21.5409 45.7451 22.6656 44.8168 24 44.345V40H2C1.46957 40 0.960859 39.7893 0.585786 39.4142C0.210714 39.0391 0 38.5304 0 38C0 37.4696 0.210714 36.9609 0.585786 36.5858C0.960859 36.2107 1.46957 36 2 36H4V12C2.93913 12 1.92172 11.5786 1.17157 10.8284C0.421427 10.0783 0 9.06087 0 8V4C0 2.93913 0.421427 1.92172 1.17157 1.17157C1.92172 0.421427 2.93913 0 4 0H48C49.0609 0 50.0783 0.421427 50.8284 1.17157C51.5786 1.92172 52 2.93913 52 4V8C52 9.06087 51.5786 10.0783 50.8284 10.8284C50.0783 11.5786 49.0609 12 48 12ZM28 50C28 49.6044 27.8827 49.2178 27.6629 48.8889C27.4432 48.56 27.1308 48.3036 26.7654 48.1522C26.3999 48.0009 25.9978 47.9613 25.6098 48.0384C25.2219 48.1156 24.8655 48.3061 24.5858 48.5858C24.3061 48.8655 24.1156 49.2219 24.0384 49.6098C23.9613 49.9978 24.0009 50.3999 24.1522 50.7654C24.3036 51.1308 24.56 51.4432 24.8889 51.6629C25.2178 51.8827 25.6044 52 26 52C26.5304 52 27.0391 51.7893 27.4142 51.4142C27.7893 51.0391 28 50.5304 28 50ZM4 8H48V4H4V8ZM44 12H8V36H44V12Z" fill="url(#paint0_linear_6480_1287)"/>
<defs>
<linearGradient id="paint0_linear_6480_1287" x1="-3.00863e-08" y1="56.0018" x2="52.5288" y2="55.5014" gradientUnits="userSpaceOnUse">
<stop stop-color="#2F4FA3"/>
<stop offset="1" stop-color="#5FE3E3"/>
</linearGradient>
</defs>
</svg>
